<svg id="svg" version="1.1" xmlns="http://www.w3.org/2000/svg" xmlns:xlink="http://www.w3.org/1999/xlink" width="400" height="381.25" viewBox="0, 0, 400,381.25"><g id="svgg"><path id="path0" d="M0.000 190.658 L 0.000 381.316 200.000 381.316 L 400.000 381.316 400.000 190.658 L 400.000 0.000 200.000 0.000 L 0.000 0.000 0.000 190.658 M298.697 34.795 C 300.759 35.353,304.534 36.000,307.086 36.232 C 313.127 36.782,314.709 37.157,317.198 38.629 C 320.755 40.731,323.864 42.301,325.661 42.901 C 328.245 43.764,328.908 44.375,330.457 47.322 C 331.985 50.230,333.234 51.370,336.010 52.391 C 339.939 53.835,346.819 61.005,347.692 64.563 C 348.914 69.550,348.568 71.524,346.347 72.225 C 345.381 72.530,342.044 76.788,342.032 77.731 C 342.020 78.631,340.594 81.656,339.758 82.555 C 338.866 83.514,336.294 87.665,335.015 90.208 C 334.481 91.272,333.204 92.937,332.177 93.908 C 331.151 94.880,329.841 96.412,329.266 97.313 C 328.691 98.214,327.566 99.466,326.765 100.095 C 325.137 101.375,323.207 104.130,322.830 105.713 C 322.683 106.331,322.122 106.992,321.450 107.340 C 320.827 107.662,320.049 108.444,319.721 109.079 C 319.393 109.714,318.661 110.435,318.094 110.682 C 317.083 111.122,317.095 111.133,318.746 111.262 C 320.157 111.373,320.575 111.236,321.335 110.416 C 321.834 109.878,322.485 109.438,322.782 109.438 C 323.078 109.438,324.487 108.561,325.912 107.490 C 327.337 106.419,328.761 105.454,329.075 105.346 C 329.580 105.172,331.669 103.210,337.393 97.532 C 338.298 96.635,339.363 95.300,339.760 94.566 C 340.158 93.832,341.391 92.294,342.501 91.149 C 343.611 90.004,345.309 87.945,346.274 86.573 C 350.517 80.549,357.317 81.479,359.587 88.395 C 361.017 92.750,361.088 97.811,361.094 195.234 C 361.100 302.237,361.153 300.189,358.254 304.690 C 356.722 307.070,355.467 309.794,354.437 312.976 C 353.688 315.288,352.825 316.891,351.028 319.301 C 349.704 321.077,348.253 323.291,347.802 324.221 C 346.895 326.096,341.732 331.474,339.943 332.408 C 338.752 333.030,337.621 333.968,335.047 336.465 C 334.209 337.279,332.737 338.291,331.776 338.714 C 330.050 339.473,329.444 339.878,326.343 342.346 C 324.385 343.905,322.813 344.574,319.475 345.270 C 316.326 345.926,310.570 348.221,309.462 349.262 C 306.844 351.722,299.105 352.033,244.233 351.887 C 201.264 351.772,197.992 351.718,196.617 351.096 C 194.750 350.253,193.109 350.251,190.992 351.091 C 189.484 351.688,187.409 351.753,169.495 351.758 C 148.258 351.764,148.145 351.756,146.306 350.016 C 145.637 349.384,144.490 348.481,143.756 348.008 L 142.421 347.148 140.896 348.789 C 137.009 352.973,123.703 353.005,121.001 348.838 C 120.413 347.931,119.832 347.102,119.711 346.997 C 118.440 345.896,115.443 339.471,114.777 336.418 C 113.869 332.258,113.149 330.355,110.846 326.025 C 109.123 322.788,108.609 320.864,108.095 315.729 C 107.704 311.836,106.843 308.459,105.007 303.619 C 102.697 297.532,102.233 294.493,101.620 281.411 C 101.237 273.265,100.921 269.636,100.472 268.255 C 99.393 264.939,99.291 259.506,100.257 256.816 C 100.950 254.889,101.135 253.175,101.435 245.949 C 102.013 232.018,102.671 227.528,104.508 225.005 C 105.607 223.496,107.775 217.109,108.266 213.939 C 108.766 210.707,109.692 208.381,111.286 206.357 C 112.683 204.583,114.217 201.538,114.584 199.809 C 115.040 197.664,117.978 193.139,119.783 191.802 C 119.924 191.697,120.479 190.619,121.015 189.406 C 121.551 188.194,122.827 186.220,123.850 185.021 C 124.872 183.822,126.118 182.240,126.617 181.506 C 127.116 180.772,127.745 179.945,128.014 179.668 C 128.283 179.391,128.503 179.045,128.503 178.899 C 128.503 178.753,129.704 177.377,131.173 175.840 C 132.641 174.304,133.842 172.844,133.842 172.596 C 133.842 171.915,137.069 169.019,138.496 168.420 C 139.187 168.130,141.197 166.484,142.963 164.763 C 144.864 162.909,146.600 161.547,147.221 161.423 C 148.277 161.212,149.808 158.115,149.079 157.665 C 148.557 157.342,147.651 157.893,147.452 158.654 C 147.327 159.131,146.927 159.390,146.317 159.390 C 145.799 159.390,145.161 159.647,144.900 159.962 C 144.639 160.276,144.180 160.534,143.880 160.534 C 143.581 160.534,142.787 161.116,142.116 161.827 C 141.445 162.538,140.244 163.326,139.447 163.579 C 138.650 163.831,137.553 164.450,137.008 164.955 C 136.464 165.459,135.915 165.873,135.788 165.875 C 135.661 165.876,135.131 166.503,134.610 167.269 C 134.050 168.090,132.936 168.996,131.888 169.482 C 130.912 169.934,129.509 170.894,128.771 171.615 C 125.694 174.622,124.340 175.786,123.921 175.786 C 122.293 175.786,117.911 179.889,116.386 182.841 C 115.952 183.680,114.383 185.611,112.899 187.134 C 111.415 188.656,110.200 190.063,110.200 190.261 C 110.200 190.459,109.157 191.788,107.882 193.213 C 106.607 194.639,105.040 196.835,104.400 198.093 C 103.761 199.352,102.756 200.932,102.168 201.605 C 100.517 203.495,99.080 206.156,97.896 209.517 C 97.301 211.204,96.391 213.198,95.874 213.949 C 94.314 216.213,92.372 221.519,91.737 225.251 C 91.115 228.903,90.788 229.978,89.036 234.128 C 88.460 235.491,87.848 236.949,87.675 237.369 C 85.931 241.603,85.087 258.280,85.753 275.310 C 86.328 289.991,86.421 290.538,90.142 301.049 C 90.767 302.812,91.297 305.660,91.704 309.438 C 92.475 316.587,94.088 322.169,95.910 323.991 C 96.577 324.658,97.548 328.047,98.176 331.900 C 98.564 334.279,99.212 336.067,101.008 339.709 C 103.726 345.223,104.034 347.289,102.415 349.168 C 101.036 350.771,95.782 350.760,92.660 349.150 C 90.369 347.968,84.605 345.662,81.098 344.524 C 79.877 344.128,78.161 343.183,77.285 342.424 C 76.408 341.664,74.833 340.460,73.785 339.748 C 71.023 337.873,59.572 326.486,58.641 324.690 C 57.704 322.881,54.862 319.161,54.417 319.161 C 53.916 319.161,52.280 315.279,51.871 313.121 C 51.435 310.824,49.290 306.044,48.090 304.697 C 46.913 303.375,46.230 300.663,45.571 294.686 C 44.958 289.130,44.362 285.913,43.106 281.382 C 42.248 278.284,41.854 105.760,42.698 102.574 C 42.892 101.840,43.408 100.245,43.843 99.029 C 44.626 96.845,44.942 94.828,45.753 86.864 C 46.220 82.283,47.029 79.113,48.022 77.979 C 49.285 76.537,51.506 72.493,52.060 70.628 C 52.579 68.879,53.623 67.203,55.732 64.731 C 56.224 64.155,57.226 62.868,57.960 61.871 C 60.516 58.397,69.031 50.322,71.292 49.226 C 73.482 48.165,74.162 47.681,76.842 45.286 C 78.410 43.883,80.653 42.707,81.760 42.707 C 82.960 42.707,88.841 40.321,89.865 39.419 C 92.299 37.274,94.131 36.764,101.239 36.252 C 104.318 36.030,107.769 35.533,109.392 35.078 C 114.383 33.677,116.393 33.649,206.292 33.715 L 294.948 33.780 298.697 34.795 M282.268 104.957 C 280.791 106.808,280.621 107.835,281.656 108.650 C 283.681 110.242,284.903 108.829,283.752 106.227 C 282.909 104.321,282.829 104.253,282.268 104.957 M313.346 113.895 C 312.477 114.122,312.497 114.652,313.393 115.132 C 313.937 115.423,314.257 115.350,314.729 114.828 C 315.642 113.819,315.083 113.441,313.346 113.895 M241.470 128.995 C 240.713 129.824,240.712 129.865,241.402 131.459 C 242.278 133.481,242.969 133.511,243.847 131.563 C 244.866 129.304,243.015 127.304,241.470 128.995 M218.919 136.733 C 217.570 138.448,217.531 139.180,218.739 140.168 C 220.116 141.295,220.452 141.296,221.497 140.184 L 222.346 139.280 221.488 137.514 C 220.507 135.496,220.011 135.345,218.919 136.733 M232.712 159.581 C 232.714 160.629,232.788 161.013,232.876 160.433 C 232.964 159.854,232.961 158.996,232.871 158.527 C 232.780 158.058,232.709 158.532,232.712 159.581 M252.881 200.955 C 251.032 201.794,251.078 202.162,253.166 203.227 L 254.613 203.965 255.623 202.911 L 256.633 201.856 255.747 201.024 C 254.687 200.028,254.911 200.034,252.881 200.955 " stroke="none" fill="#f5f8f9" fill-rule="evenodd"></path><path id="path1" d="M113.632 36.864 C 97.447 38.503,96.738 38.644,92.869 40.992 C 90.694 42.313,88.950 43.011,86.059 43.719 C 81.773 44.769,79.388 45.953,78.201 47.620 C 77.772 48.223,76.079 49.414,74.440 50.267 C 70.982 52.066,61.385 61.117,59.006 64.824 C 58.266 65.977,56.894 67.704,55.958 68.661 C 54.611 70.039,54.036 71.070,53.195 73.618 C 52.611 75.387,51.573 77.957,50.888 79.328 C 48.496 84.119,47.712 86.514,47.303 90.294 C 45.712 104.994,45.752 102.379,45.755 190.706 C 45.758 294.767,45.657 292.315,50.355 302.201 C 51.392 304.383,52.583 307.638,53.002 309.433 C 54.000 313.714,54.464 314.748,56.519 317.261 C 57.465 318.418,58.707 320.290,59.281 321.421 C 60.159 323.155,62.556 325.905,67.031 330.313 C 67.511 330.786,69.227 332.486,70.844 334.092 C 72.461 335.698,74.529 337.382,75.439 337.835 C 77.070 338.647,80.540 340.985,81.544 341.949 C 83.669 343.988,98.367 347.222,98.857 345.758 C 99.390 344.165,96.318 332.686,93.969 327.495 C 91.973 323.082,91.584 321.646,89.981 312.780 C 89.555 310.424,88.349 305.922,87.300 302.776 C 85.253 296.635,85.236 296.520,84.077 281.792 C 83.418 273.411,83.298 254.103,83.886 250.880 C 84.093 249.741,84.430 246.144,84.634 242.887 C 85.110 235.291,85.485 233.613,87.743 228.980 C 89.027 226.343,89.886 223.871,90.525 220.967 C 91.663 215.800,92.443 213.722,94.526 210.306 C 95.418 208.843,96.649 206.346,97.262 204.758 C 97.988 202.874,98.853 201.411,99.747 200.553 C 100.502 199.829,101.787 197.950,102.604 196.378 C 103.421 194.805,104.820 192.633,105.715 191.552 C 106.609 190.470,108.302 188.411,109.477 186.976 C 110.652 185.541,112.180 183.765,112.873 183.031 C 113.566 182.297,114.734 180.761,115.469 179.618 C 116.857 177.457,118.844 175.405,119.547 175.405 C 119.770 175.405,121.117 174.372,122.540 173.109 C 123.963 171.846,126.101 170.094,127.292 169.216 C 128.483 168.338,130.400 166.710,131.554 165.598 C 132.707 164.485,134.766 163.020,136.130 162.341 C 137.493 161.661,139.387 160.302,140.338 159.320 C 141.516 158.104,142.793 157.262,144.337 156.685 C 145.584 156.218,147.465 155.259,148.517 154.553 C 149.568 153.847,151.302 152.686,152.368 151.973 C 153.702 151.081,155.250 150.482,157.325 150.055 C 160.661 149.367,163.001 148.182,164.472 146.434 C 165.637 145.049,168.473 144.314,171.341 144.654 C 176.421 145.255,173.461 148.925,166.979 150.061 C 165.902 150.250,165.167 150.819,163.565 152.705 C 161.808 154.774,161.113 155.276,158.573 156.315 C 155.874 157.418,154.188 158.732,153.035 160.630 C 152.860 160.917,151.602 161.770,150.238 162.525 C 148.645 163.407,147.290 164.525,146.445 165.654 C 145.691 166.661,144.237 167.914,143.036 168.592 C 139.952 170.332,130.708 179.933,127.664 184.557 C 126.905 185.710,125.655 187.255,124.886 187.989 C 124.118 188.723,122.920 190.524,122.223 191.992 C 121.526 193.460,120.414 195.262,119.751 195.996 C 117.953 197.988,116.858 200.006,115.531 203.770 C 114.506 206.677,112.880 209.832,112.068 210.486 C 111.294 211.111,110.358 213.953,109.259 219.022 C 108.531 222.379,107.407 226.218,106.567 228.217 C 104.113 234.055,103.688 236.386,103.335 245.949 C 103.161 250.667,102.816 256.037,102.568 257.881 C 102.227 260.414,102.221 262.306,102.545 265.619 C 102.780 268.031,103.140 273.901,103.343 278.663 C 103.748 288.117,104.064 290.133,106.158 296.603 C 107.945 302.122,108.486 304.488,109.426 310.882 C 110.506 318.235,110.772 319.207,112.662 322.732 C 113.883 325.010,114.724 327.372,115.717 331.313 C 116.821 335.697,117.420 337.301,118.809 339.589 C 119.756 341.150,120.764 343.086,121.048 343.891 C 122.828 348.936,124.340 350.055,129.346 350.035 C 135.873 350.010,139.052 347.765,138.057 343.885 C 137.606 342.124,137.628 341.876,138.315 340.952 C 140.345 338.220,145.187 340.117,146.013 343.968 C 146.659 346.982,147.768 348.817,149.338 349.473 C 151.633 350.432,187.196 350.304,189.342 349.329 C 191.281 348.449,192.130 346.288,191.403 344.086 C 190.338 340.857,191.543 338.492,194.157 338.680 C 196.192 338.827,197.003 340.891,196.276 344.071 C 195.695 346.608,196.236 348.119,198.106 349.180 L 199.619 350.038 248.236 349.948 L 296.854 349.857 300.858 348.972 C 303.373 348.416,305.996 347.520,307.912 346.561 C 310.038 345.497,312.350 344.742,315.539 344.070 C 320.677 342.986,320.960 342.870,323.359 340.852 C 324.305 340.057,326.596 338.705,328.450 337.849 C 330.941 336.698,332.335 335.758,333.785 334.251 C 334.865 333.129,336.607 331.782,337.658 331.256 C 338.986 330.591,340.132 329.564,341.426 327.877 C 342.448 326.544,343.784 325.049,344.394 324.555 C 345.004 324.061,346.193 322.285,347.036 320.609 C 347.879 318.932,349.438 316.455,350.500 315.104 C 352.094 313.074,352.628 311.971,353.564 308.764 C 354.188 306.628,355.088 304.104,355.565 303.155 C 359.392 295.538,359.199 301.300,359.199 194.469 C 359.199 95.083,359.204 95.391,357.439 91.158 C 355.227 85.855,349.895 85.327,346.837 90.108 C 346.106 91.251,344.816 92.734,343.971 93.403 C 343.127 94.072,341.815 95.625,341.056 96.854 C 340.253 98.155,338.742 99.823,337.439 100.847 C 336.208 101.814,334.895 103.126,334.521 103.762 C 334.148 104.398,332.898 105.495,331.745 106.201 C 330.591 106.907,328.704 108.452,327.550 109.634 C 326.397 110.817,324.938 112.049,324.309 112.372 C 323.059 113.015,320.770 114.634,318.300 116.622 C 317.430 117.323,315.400 118.558,313.791 119.368 C 311.967 120.285,310.357 121.431,309.520 122.409 C 308.468 123.638,307.589 124.177,305.465 124.896 C 301.762 126.149,301.589 126.248,298.385 128.966 C 296.693 130.402,295.436 130.807,291.895 131.057 C 287.746 131.350,287.293 130.866,289.210 128.197 C 290.574 126.299,291.018 126.027,294.588 124.903 C 296.125 124.420,296.811 123.909,297.971 122.389 C 298.938 121.121,300.274 120.009,301.953 119.074 C 303.343 118.300,305.682 116.536,307.150 115.156 C 308.618 113.775,310.591 112.112,311.535 111.461 C 312.479 110.809,313.765 109.723,314.395 109.046 C 315.024 108.370,316.678 107.079,318.071 106.177 C 320.031 104.909,320.807 104.127,321.503 102.721 C 321.998 101.721,323.570 99.606,324.998 98.021 C 326.425 96.435,327.717 94.967,327.867 94.757 C 328.018 94.547,329.316 93.022,330.753 91.367 C 332.272 89.618,333.842 87.308,334.504 85.849 C 335.130 84.468,336.327 82.562,337.164 81.612 C 339.032 79.494,339.727 78.139,341.085 73.975 C 341.718 72.035,342.657 70.096,343.425 69.145 C 345.133 67.030,345.195 65.022,343.609 63.215 C 343.003 62.526,341.883 60.896,341.120 59.593 C 339.270 56.436,333.951 54.219,328.096 54.162 C 325.768 54.139,324.951 52.366,326.244 50.142 C 327.972 47.168,326.287 45.139,320.686 43.449 C 319.113 42.975,316.359 41.775,314.566 40.783 C 306.812 36.494,309.542 36.596,204.194 36.668 C 155.119 36.701,114.366 36.789,113.632 36.864 M302.431 38.595 C 304.870 38.934,307.186 39.387,307.579 39.603 C 309.130 40.455,314.929 42.833,317.636 43.729 C 319.209 44.249,321.096 44.882,321.830 45.136 C 322.753 45.455,323.426 46.070,324.011 47.129 L 324.857 48.661 323.869 50.049 C 321.618 53.213,323.581 56.043,328.040 56.062 C 331.268 56.075,336.422 56.989,337.776 57.789 C 340.825 59.590,343.395 66.363,341.821 68.446 C 341.504 68.866,340.805 70.667,340.269 72.450 C 339.303 75.660,337.758 78.616,336.082 80.459 C 335.604 80.984,334.708 82.528,334.090 83.891 C 333.312 85.606,331.400 88.221,327.875 92.395 C 325.075 95.710,322.267 99.237,321.636 100.232 C 320.361 102.244,317.178 105.624,316.559 105.624 C 315.993 105.624,310.632 109.976,304.898 115.091 C 303.410 116.418,301.452 117.833,300.546 118.235 C 299.641 118.637,297.884 119.966,296.642 121.189 C 294.779 123.023,293.803 123.633,291.067 124.672 C 288.558 125.625,287.423 126.296,286.409 127.425 C 284.600 129.441,283.175 130.246,280.458 130.792 C 276.618 131.562,274.847 132.508,273.705 134.399 C 272.211 136.873,271.251 137.343,266.950 137.706 C 261.434 138.173,260.390 138.605,259.795 140.667 C 258.996 143.433,259.846 143.887,265.403 143.666 C 270.217 143.474,270.712 143.301,273.424 140.855 C 275.451 139.028,276.567 138.624,281.220 138.037 C 285.367 137.513,287.351 136.688,289.840 134.450 C 291.390 133.057,292.209 132.645,294.436 132.138 C 298.369 131.244,302.791 128.899,304.295 126.912 C 304.402 126.770,305.476 126.285,306.680 125.834 C 307.885 125.384,309.847 124.181,311.042 123.162 C 312.236 122.143,314.668 120.492,316.447 119.494 C 318.225 118.496,320.636 116.885,321.804 115.915 C 322.972 114.945,324.706 113.697,325.657 113.141 C 326.608 112.585,327.895 111.423,328.517 110.558 C 329.138 109.694,330.644 108.340,331.861 107.551 C 334.020 106.153,341.277 99.341,341.277 98.714 C 341.277 98.541,342.634 96.960,344.291 95.200 C 345.949 93.440,347.573 91.484,347.899 90.852 C 348.766 89.176,351.155 88.281,352.861 88.993 C 354.706 89.764,355.687 91.411,357.042 96.010 L 358.246 100.095 358.246 194.471 C 358.246 300.658,358.537 290.147,355.348 299.056 C 354.539 301.316,353.606 304.233,353.274 305.538 C 352.942 306.844,352.507 308.542,352.306 309.311 C 352.106 310.080,350.975 311.961,349.793 313.490 C 348.611 315.020,347.139 317.352,346.521 318.672 C 345.903 319.992,344.428 322.179,343.242 323.532 C 342.057 324.884,340.473 326.814,339.723 327.819 C 338.859 328.976,337.670 329.985,336.481 330.569 C 335.449 331.075,333.595 332.417,332.362 333.550 C 330.931 334.865,328.955 336.148,326.905 337.095 C 325.138 337.912,323.059 339.070,322.285 339.669 C 319.476 341.843,318.043 342.455,313.946 343.229 C 311.676 343.658,308.618 344.492,307.150 345.082 C 305.682 345.672,302.446 346.773,299.959 347.529 L 295.438 348.904 248.243 348.904 C 222.286 348.904,200.501 348.794,199.831 348.660 C 197.858 348.266,197.340 347.042,197.335 342.772 C 197.330 338.136,196.896 337.464,193.906 337.464 C 190.783 337.464,189.176 340.326,190.205 344.055 C 190.666 345.726,189.845 347.679,188.370 348.416 C 187.647 348.777,182.912 348.894,168.789 348.898 L 150.162 348.904 148.923 347.664 C 147.955 346.696,147.592 345.904,147.265 344.046 C 146.606 340.306,145.895 339.141,143.847 338.443 C 140.643 337.351,136.120 338.210,135.630 340.003 C 135.072 342.043,135.061 342.737,135.571 343.719 C 137.082 346.632,134.401 348.904,129.450 348.904 C 124.924 348.904,123.611 347.906,122.218 343.407 C 121.693 341.712,120.842 339.638,120.327 338.799 C 118.117 335.200,117.394 333.444,116.447 329.379 C 115.591 325.701,114.164 321.708,111.903 316.665 C 111.161 315.011,110.712 312.782,110.023 307.340 C 109.187 300.740,108.819 298.971,107.324 294.376 C 105.379 288.398,104.846 285.335,104.472 277.979 C 104.285 274.309,103.953 269.053,103.733 266.299 C 103.455 262.822,103.455 260.200,103.730 257.719 C 103.949 255.754,104.278 250.543,104.463 246.139 L 104.798 238.132 106.415 233.556 C 107.304 231.039,108.339 228.114,108.713 227.054 C 109.088 225.995,109.671 223.422,110.009 221.335 C 110.777 216.594,111.305 215.121,113.617 211.274 C 114.632 209.584,115.837 206.957,116.294 205.436 C 117.194 202.440,118.217 200.470,120.100 198.107 C 120.763 197.276,122.008 195.243,122.868 193.590 C 123.728 191.937,125.236 189.700,126.219 188.619 C 127.202 187.538,128.486 185.882,129.073 184.938 C 131.148 181.603,141.849 170.465,143.924 169.480 C 145.402 168.778,146.506 167.785,148.028 165.787 C 148.594 165.042,149.930 163.999,150.996 163.467 C 152.063 162.936,154.075 161.461,155.467 160.190 C 157.298 158.520,158.728 157.601,160.627 156.876 C 162.636 156.108,163.721 155.386,165.240 153.805 C 166.972 152.003,167.655 151.595,170.558 150.625 C 174.733 149.232,175.707 148.653,177.061 146.765 C 178.660 144.534,179.379 144.225,183.956 143.806 C 188.767 143.366,189.878 142.799,190.419 140.511 C 191.002 138.047,188.376 137.236,182.305 138.005 C 178.996 138.424,178.073 138.797,174.593 141.118 C 172.554 142.477,170.662 143.127,167.398 143.589 C 165.056 143.920,163.004 144.865,160.525 146.751 C 159.377 147.626,157.750 148.519,156.911 148.737 C 152.582 149.860,150.886 150.661,148.234 152.835 C 146.502 154.254,144.712 155.346,143.435 155.761 C 141.578 156.365,140.385 157.180,137.658 159.703 C 137.132 160.189,135.686 161.107,134.445 161.742 C 133.205 162.377,130.856 164.167,129.226 165.719 C 127.597 167.271,126.091 168.541,125.881 168.541 C 125.670 168.541,124.223 169.700,122.664 171.115 C 121.105 172.531,119.097 174.118,118.202 174.643 C 117.117 175.278,116.026 176.447,114.927 178.152 C 114.020 179.557,112.845 180.992,112.315 181.339 C 111.786 181.686,110.650 183.024,109.792 184.312 C 108.934 185.600,107.241 187.684,106.029 188.942 C 104.816 190.201,103.262 192.346,102.574 193.709 C 101.321 196.190,100.241 197.810,98.343 200.055 C 97.785 200.715,97.015 202.088,96.631 203.106 C 96.246 204.124,95.218 206.072,94.346 207.436 C 91.754 211.487,91.169 212.920,89.989 218.120 C 89.152 221.804,88.466 223.798,87.311 225.903 C 84.703 230.655,84.122 233.348,83.520 243.470 C 83.303 247.118,82.875 250.364,82.339 252.431 C 81.219 256.747,81.432 271.843,82.718 279.314 C 83.151 281.830,83.508 285.091,83.510 286.559 C 83.523 294.606,84.873 302.110,87.751 310.146 C 88.572 312.437,89.505 315.961,89.824 317.976 C 90.703 323.530,91.447 326.161,93.215 329.979 C 96.417 336.890,97.398 341.823,95.874 343.347 C 94.308 344.913,86.337 343.425,83.127 340.968 C 81.973 340.085,79.540 338.590,77.718 337.646 C 75.229 336.356,73.956 335.402,72.592 333.804 C 71.593 332.635,70.080 331.199,69.230 330.612 C 68.379 330.026,67.012 328.625,66.191 327.499 C 65.369 326.374,63.997 324.936,63.140 324.304 C 62.019 323.477,61.126 322.256,59.956 319.951 C 59.061 318.188,57.761 316.046,57.067 315.189 C 55.119 312.785,54.626 311.661,53.604 307.285 C 53.082 305.053,51.870 301.479,50.910 299.342 C 47.056 290.766,47.235 296.443,47.387 187.798 C 47.534 83.425,47.262 91.935,50.703 83.918 C 51.775 81.419,53.169 77.722,53.800 75.705 C 54.758 72.641,55.252 71.699,56.796 69.994 C 57.813 68.871,59.114 67.151,59.688 66.173 C 61.706 62.729,72.327 52.689,75.803 50.939 C 76.913 50.380,78.886 49.060,80.188 48.004 C 82.987 45.736,83.858 45.332,87.893 44.438 C 89.571 44.066,91.743 43.358,92.721 42.864 C 99.243 39.570,102.657 38.802,114.395 37.993 C 121.927 37.474,298.422 38.039,302.431 38.595 M203.850 44.352 C 202.180 46.022,202.264 50.813,204.014 53.690 C 205.243 55.712,207.870 55.502,209.038 53.289 C 212.060 47.563,207.865 40.337,203.850 44.352 M208.828 46.813 C 209.215 48.154,209.198 48.773,208.733 50.340 L 208.169 52.240 206.481 52.240 C 204.124 52.240,203.096 49.893,203.993 46.562 L 204.425 44.957 206.392 45.071 C 208.351 45.185,208.361 45.193,208.828 46.813 M316.127 69.572 C 314.785 71.001,314.815 74.930,316.191 77.884 L 317.212 80.076 318.932 80.076 C 320.609 80.076,320.671 80.033,321.499 78.265 C 322.662 75.783,322.765 70.646,321.676 69.441 C 320.574 68.222,317.324 68.299,316.127 69.572 M199.905 69.652 C 198.332 70.209,198.284 70.275,198.284 71.896 C 198.284 75.836,207.858 75.955,208.121 72.019 L 208.233 70.325 206.405 69.670 C 204.209 68.883,202.094 68.877,199.905 69.652 M321.328 71.799 C 321.696 73.290,321.676 73.976,321.218 75.517 L 320.657 77.407 318.946 77.407 C 316.573 77.407,315.127 72.457,316.882 70.342 C 318.104 68.870,320.825 69.761,321.328 71.799 M297.599 88.257 C 295.386 90.471,296.950 94.185,300.095 94.185 C 302.242 94.185,303.527 92.900,303.527 90.753 C 303.527 88.607,302.242 87.321,300.095 87.321 C 298.948 87.321,298.288 87.569,297.599 88.257 M199.878 88.517 C 197.503 89.202,196.477 93.246,197.739 96.950 C 199.116 100.991,207.378 100.957,208.759 96.906 C 210.954 90.462,206.788 86.526,199.878 88.517 M302.002 90.753 L 302.002 92.660 300.095 92.660 L 298.189 92.660 298.189 90.753 L 298.189 88.847 300.095 88.847 L 302.002 88.847 302.002 90.753 M205.990 91.021 C 208.832 93.796,207.200 97.998,203.280 97.998 C 199.280 97.998,197.512 93.525,200.477 90.905 C 202.497 89.119,204.076 89.153,205.990 91.021 M280.410 100.168 C 277.287 100.780,276.083 109.891,278.800 112.350 C 279.900 113.346,284.707 113.341,287.227 112.341 C 293.813 109.726,287.663 98.744,280.410 100.168 M284.916 102.605 C 289.950 107.896,287.786 113.492,281.281 112.004 C 277.729 111.191,277.157 102.336,280.607 101.581 C 281.154 101.461,281.773 101.306,281.983 101.236 C 282.983 100.902,283.546 101.165,284.916 102.605 M208.924 112.494 C 205.053 113.146,203.622 114.802,203.622 118.628 C 203.622 123.929,206.105 125.599,210.677 123.373 C 218.606 119.513,217.249 111.091,208.924 112.494 M213.441 114.060 C 213.913 114.234,214.302 114.680,214.305 115.053 C 214.307 115.425,214.410 116.101,214.532 116.556 C 215.162 118.907,208.894 122.933,206.733 121.565 C 201.908 118.510,207.757 111.966,213.441 114.060 M259.980 115.634 C 258.691 118.076,258.719 123.072,260.028 124.468 C 262.194 126.776,265.802 125.345,266.307 121.977 C 267.230 115.819,262.425 111.001,259.980 115.634 M264.586 117.357 C 265.270 118.635,265.457 120.760,265.025 122.361 L 264.593 123.966 262.626 123.851 C 260.099 123.704,259.299 121.904,260.285 118.583 L 260.849 116.683 262.537 116.683 C 263.761 116.683,264.324 116.868,264.586 117.357 M240.285 124.671 C 235.026 125.988,233.947 128.914,236.896 133.865 C 240.295 139.571,246.410 139.182,247.480 133.191 C 248.643 126.683,245.781 123.294,240.285 124.671 M245.427 126.257 C 246.711 127.323,247.071 131.507,246.118 134.302 C 245.517 136.066,244.783 136.511,242.470 136.511 C 241.398 136.511,238.846 133.904,237.804 131.745 L 236.884 129.838 237.779 128.068 C 238.990 125.675,243.452 124.618,245.427 126.257 M216.683 132.031 C 213.838 134.018,213.581 142.394,216.312 144.122 C 217.728 145.018,220.385 145.242,222.491 144.643 C 225.792 143.704,226.431 143.340,227.047 142.043 C 229.760 136.325,221.692 128.531,216.683 132.031 M286.949 132.331 C 287.189 132.720,284.851 135.624,283.778 136.269 C 283.108 136.671,278.412 136.802,277.540 136.442 C 276.217 135.897,277.863 132.774,279.690 132.362 C 281.845 131.876,286.655 131.855,286.949 132.331 M222.848 134.318 C 226.983 138.562,226.928 141.573,222.685 143.253 C 218.453 144.928,215.443 142.925,215.443 138.433 C 215.443 135.996,217.047 132.790,218.365 132.593 C 220.669 132.248,220.927 132.347,222.848 134.318 M197.313 144.311 C 196.206 145.418,196.272 148.241,197.437 149.571 C 198.362 150.628,201.725 150.493,202.793 149.356 C 205.773 146.184,200.393 141.231,197.313 144.311 M201.907 146.997 L 201.907 148.904 200.000 148.904 L 198.093 148.904 197.973 147.434 C 197.783 145.124,198.026 144.842,200.091 144.974 L 201.907 145.091 201.907 146.997 M249.762 145.663 C 249.762 146.483,251.356 147.692,251.707 147.137 C 252.414 146.022,252.094 145.281,250.906 145.281 C 250.276 145.281,249.762 145.453,249.762 145.663 M231.011 152.802 C 228.822 153.033,226.501 156.489,226.501 159.518 C 226.501 164.464,231.228 167.625,234.760 165.041 C 239.499 161.574,240.494 159.736,239.072 157.078 C 238.609 156.213,233.438 152.497,232.829 152.590 C 232.599 152.626,231.781 152.721,231.011 152.802 M234.242 155.430 C 238.410 157.532,238.709 160.325,235.036 162.853 C 231.554 165.248,228.067 163.617,228.043 159.581 C 228.020 155.702,230.926 153.757,234.242 155.430 M177.553 156.000 C 172.953 157.080,171.670 160.316,175.119 162.136 C 179.480 164.438,184.938 162.970,184.938 159.496 C 184.938 156.360,181.981 154.960,177.553 156.000 M182.916 157.546 C 183.266 157.836,183.410 158.584,183.336 159.723 C 183.186 162.006,181.250 162.776,178.048 161.825 L 176.128 161.255 176.243 159.464 C 176.403 156.977,180.731 155.732,182.916 157.546 M158.869 168.565 C 154.178 169.724,153.030 172.730,156.545 174.650 C 159.107 176.051,164.045 176.046,165.123 174.643 C 167.952 170.960,164.146 167.261,158.869 168.565 M164.213 170.114 C 164.861 170.652,164.890 173.350,164.252 173.759 C 162.659 174.779,161.304 174.919,159.308 174.268 L 157.293 173.611 157.293 171.947 C 157.293 169.619,162.087 168.349,164.213 170.114 M241.146 175.828 C 238.812 178.409,240.837 186.082,243.851 186.082 C 246.258 186.082,247.258 184.227,247.273 179.736 C 247.286 175.756,246.754 175.024,243.851 175.024 C 242.322 175.024,241.707 175.207,241.146 175.828 M245.992 177.216 C 247.224 180.399,246.119 183.794,243.851 183.794 C 242.192 183.794,242.157 183.767,241.712 182.173 C 240.635 178.324,241.403 176.168,243.851 176.168 C 245.391 176.168,245.632 176.286,245.992 177.216 M141.260 188.162 C 138.873 190.549,140.514 194.090,144.007 194.090 C 146.495 194.090,147.188 193.371,147.188 190.790 C 147.188 187.414,143.599 185.823,141.260 188.162 M145.853 190.848 L 145.853 192.755 143.947 192.755 L 142.040 192.755 141.924 190.732 L 141.808 188.710 143.831 188.826 L 145.853 188.942 145.853 190.848 M252.622 195.253 C 247.094 197.386,244.791 203.792,248.736 206.062 C 251.907 207.886,256.532 207.810,258.667 205.899 C 261.194 203.637,259.907 195.648,256.920 195.047 C 256.234 194.908,255.415 194.733,255.100 194.656 C 254.786 194.580,253.670 194.848,252.622 195.253 M257.088 197.382 C 259.580 198.649,259.645 204.299,257.182 205.513 C 251.469 208.330,245.823 203.677,249.847 199.469 C 252.567 196.623,254.501 196.066,257.088 197.382 M128.951 206.793 C 127.855 207.960,127.775 211.198,128.819 212.143 C 129.816 213.045,133.136 213.002,133.973 212.077 C 136.863 208.883,131.896 203.658,128.951 206.793 M133.270 209.533 L 133.270 211.439 131.363 211.439 L 129.457 211.439 129.336 209.969 C 129.146 207.660,129.389 207.378,131.455 207.510 L 133.270 207.626 133.270 209.533 M255.888 219.788 C 252.653 220.957,252.713 228.894,255.969 230.440 C 260.932 232.795,265.434 230.229,265.367 225.084 C 265.306 220.501,264.097 219.314,259.485 219.314 C 258.227 219.314,256.608 219.527,255.888 219.788 M262.313 222.267 C 265.744 226.599,260.852 231.456,256.607 227.931 C 254.525 226.203,254.501 224.459,256.530 222.303 C 258.575 220.129,260.610 220.116,262.313 222.267 M121.164 225.931 C 116.713 228.304,114.964 235.196,118.444 236.650 C 121.499 237.926,126.147 237.049,127.378 234.965 C 131.076 228.695,127.025 222.805,121.164 225.931 M125.568 226.496 C 126.642 226.504,127.467 228.906,127.161 231.134 C 126.605 235.175,121.485 237.062,119.239 234.054 C 117.902 232.262,121.944 225.704,124.040 226.266 C 124.502 226.390,125.190 226.493,125.568 226.496 M256.278 244.730 C 254.290 245.494,253.633 246.839,253.633 250.143 C 253.633 254.419,255.356 256.203,259.485 256.203 C 263.615 256.203,265.338 254.419,265.338 250.143 C 265.338 245.867,263.615 244.083,259.485 244.083 C 258.646 244.083,257.203 244.374,256.278 244.730 M262.232 247.167 C 264.892 249.746,263.157 254.337,259.522 254.337 C 257.411 254.337,255.100 252.163,255.100 250.177 C 255.100 246.615,259.671 244.686,262.232 247.167 M118.389 251.057 C 114.854 252.597,115.208 260.497,118.869 261.744 C 125.390 263.966,129.785 259.670,127.404 253.401 C 126.390 250.732,121.846 249.550,118.389 251.057 M124.769 253.462 C 127.611 256.237,125.979 260.439,122.060 260.439 C 118.102 260.439,116.323 256.037,119.188 253.334 C 121.117 251.514,122.815 251.553,124.769 253.462 M253.748 269.382 C 251.361 271.769,253.002 275.310,256.496 275.310 C 258.983 275.310,259.676 274.591,259.676 272.010 C 259.676 268.634,256.087 267.043,253.748 269.382 M258.341 272.069 L 258.341 273.975 256.435 273.975 L 254.528 273.975 254.407 272.505 C 254.218 270.196,254.461 269.913,256.526 270.046 L 258.341 270.162 258.341 272.069 M118.684 275.944 C 117.105 276.503,117.064 276.561,117.064 278.221 C 117.064 280.261,118.327 281.030,121.678 281.030 C 125.504 281.030,126.597 280.432,126.597 278.341 C 126.597 275.575,122.895 274.453,118.684 275.944 M241.296 290.658 C 239.026 294.958,240.462 300.477,243.851 300.477 C 246.471 300.477,247.286 299.266,247.273 295.392 C 247.258 290.892,246.260 289.037,243.851 289.037 C 242.239 289.037,242.106 289.121,241.296 290.658 M246.102 293.607 C 246.568 295.176,246.584 295.791,246.195 297.134 L 245.724 298.761 243.851 298.761 L 241.978 298.761 241.507 297.134 C 241.118 295.791,241.135 295.176,241.601 293.607 L 242.165 291.706 243.851 291.706 L 245.538 291.706 246.102 293.607 M122.844 296.994 C 122.238 299.015,122.290 302.138,122.955 303.730 C 123.879 305.943,126.344 305.705,127.373 303.305 C 128.151 301.490,128.383 298.395,127.770 298.016 C 127.576 297.897,127.305 297.286,127.168 296.659 C 126.734 294.686,123.459 294.940,122.844 296.994 M228.678 309.533 C 227.541 312.012,227.474 317.156,228.562 318.358 C 230.665 320.681,234.543 318.997,235.062 315.535 C 235.972 309.464,230.898 304.693,228.678 309.533 M233.447 311.439 C 234.829 314.696,233.729 318.017,231.269 318.017 L 229.581 318.017 229.015 316.111 C 228.515 314.424,228.515 313.984,229.015 312.297 L 229.581 310.391 231.292 310.391 C 232.796 310.391,233.056 310.517,233.447 311.439 M130.029 318.646 C 126.725 319.994,127.398 324.578,131.059 325.661 C 136.477 327.263,142.174 321.855,137.560 319.490 C 135.937 318.658,131.278 318.136,130.029 318.646 M135.272 319.916 C 136.871 320.329,136.892 320.357,136.892 322.021 C 136.892 324.296,133.497 325.393,130.294 324.154 C 127.504 323.074,130.074 318.653,133.079 319.362 C 133.394 319.436,134.380 319.685,135.272 319.916 M209.958 325.821 C 208.235 328.450,209.722 331.745,212.632 331.745 C 215.678 331.745,217.222 328.512,215.372 326.009 C 214.215 324.445,210.934 324.331,209.958 325.821 M214.490 328.313 L 214.490 330.029 212.583 330.029 C 210.700 330.029,210.675 330.013,210.555 328.753 C 210.354 326.656,210.640 326.350,212.675 326.480 L 214.490 326.597 214.490 328.313 " stroke="none" fill="#6eb4bd" fill-rule="evenodd"></path><path id="path2" d="M114.921 33.969 C 113.428 34.145,110.940 34.643,109.392 35.078 C 107.769 35.533,104.318 36.030,101.239 36.252 C 94.131 36.764,92.299 37.274,89.865 39.419 C 88.841 40.321,82.960 42.707,81.760 42.707 C 80.653 42.707,78.410 43.883,76.842 45.286 C 74.162 47.681,73.482 48.165,71.292 49.226 C 69.031 50.322,60.516 58.397,57.960 61.871 C 57.226 62.868,56.224 64.155,55.732 64.731 C 53.623 67.203,52.579 68.879,52.060 70.628 C 51.506 72.493,49.285 76.537,48.022 77.979 C 47.029 79.113,46.220 82.283,45.753 86.864 C 44.942 94.828,44.626 96.845,43.843 99.029 C 43.408 100.245,42.892 101.840,42.698 102.574 C 41.854 105.760,42.248 278.284,43.106 281.382 C 44.362 285.913,44.958 289.130,45.571 294.686 C 46.230 300.663,46.913 303.375,48.090 304.697 C 49.290 306.044,51.435 310.824,51.871 313.121 C 52.280 315.279,53.916 319.161,54.417 319.161 C 54.862 319.161,57.704 322.881,58.641 324.690 C 59.572 326.486,71.023 337.873,73.785 339.748 C 74.833 340.460,76.408 341.664,77.285 342.424 C 78.161 343.183,79.877 344.128,81.098 344.524 C 84.605 345.662,90.369 347.968,92.660 349.150 C 95.782 350.760,101.036 350.771,102.415 349.168 C 104.034 347.289,103.726 345.223,101.008 339.709 C 99.212 336.067,98.564 334.279,98.176 331.900 C 97.548 328.047,96.577 324.658,95.910 323.991 C 94.088 322.169,92.475 316.587,91.704 309.438 C 91.297 305.660,90.767 302.812,90.142 301.049 C 86.421 290.538,86.328 289.991,85.753 275.310 C 85.087 258.280,85.931 241.603,87.675 237.369 C 87.848 236.949,88.460 235.491,89.036 234.128 C 90.788 229.978,91.115 228.903,91.737 225.251 C 92.372 221.519,94.314 216.213,95.874 213.949 C 96.391 213.198,97.301 211.204,97.896 209.517 C 99.080 206.156,100.517 203.495,102.168 201.605 C 102.756 200.932,103.761 199.352,104.400 198.093 C 105.040 196.835,106.607 194.639,107.882 193.213 C 109.157 191.788,110.200 190.459,110.200 190.261 C 110.200 190.063,111.415 188.656,112.899 187.134 C 114.383 185.611,115.952 183.680,116.386 182.841 C 117.911 179.889,122.293 175.786,123.921 175.786 C 124.340 175.786,125.694 174.622,128.771 171.615 C 129.509 170.894,130.912 169.934,131.888 169.482 C 132.936 168.996,134.050 168.090,134.610 167.269 C 135.131 166.503,135.661 165.876,135.788 165.875 C 135.915 165.873,136.464 165.459,137.008 164.955 C 137.553 164.450,138.650 163.831,139.447 163.579 C 140.244 163.326,141.445 162.538,142.116 161.827 C 142.787 161.116,143.581 160.534,143.880 160.534 C 144.180 160.534,144.639 160.276,144.900 159.962 C 145.161 159.647,145.799 159.390,146.317 159.390 C 146.927 159.390,147.327 159.131,147.452 158.654 C 147.651 157.893,148.557 157.342,149.079 157.665 C 149.808 158.115,148.277 161.212,147.221 161.423 C 146.600 161.547,144.864 162.909,142.963 164.763 C 141.197 166.484,139.187 168.130,138.496 168.420 C 137.069 169.019,133.842 171.915,133.842 172.596 C 133.842 172.844,132.641 174.304,131.173 175.840 C 129.704 177.377,128.503 178.753,128.503 178.899 C 128.503 179.045,128.283 179.391,128.014 179.668 C 127.745 179.945,127.116 180.772,126.617 181.506 C 126.118 182.240,124.872 183.822,123.850 185.021 C 122.827 186.220,121.551 188.194,121.015 189.406 C 120.479 190.619,119.924 191.697,119.783 191.802 C 117.978 193.139,115.040 197.664,114.584 199.809 C 114.217 201.538,112.683 204.583,111.286 206.357 C 109.692 208.381,108.766 210.707,108.266 213.939 C 107.775 217.109,105.607 223.496,104.508 225.005 C 102.671 227.528,102.013 232.018,101.435 245.949 C 101.135 253.175,100.950 254.889,100.257 256.816 C 99.291 259.506,99.393 264.939,100.472 268.255 C 100.921 269.636,101.237 273.265,101.620 281.411 C 102.233 294.493,102.697 297.532,105.007 303.619 C 106.843 308.459,107.704 311.836,108.095 315.729 C 108.609 320.864,109.123 322.788,110.846 326.025 C 113.149 330.355,113.869 332.258,114.777 336.418 C 115.443 339.471,118.440 345.896,119.711 346.997 C 119.832 347.102,120.413 347.931,121.001 348.838 C 123.703 353.005,137.009 352.973,140.896 348.789 L 142.421 347.148 143.756 348.008 C 144.490 348.481,145.637 349.384,146.306 350.016 C 148.145 351.756,148.258 351.764,169.495 351.758 C 187.409 351.753,189.484 351.688,190.992 351.091 C 193.109 350.251,194.750 350.253,196.617 351.096 C 197.992 351.718,201.264 351.772,244.233 351.887 C 299.105 352.033,306.844 351.722,309.462 349.262 C 310.570 348.221,316.326 345.926,319.475 345.270 C 322.813 344.574,324.385 343.905,326.343 342.346 C 329.444 339.878,330.050 339.473,331.776 338.714 C 332.737 338.291,334.209 337.279,335.047 336.465 C 337.621 333.968,338.752 333.030,339.943 332.408 C 341.732 331.474,346.895 326.096,347.802 324.221 C 348.253 323.291,349.704 321.077,351.028 319.301 C 352.825 316.891,353.688 315.288,354.437 312.976 C 355.467 309.794,356.722 307.070,358.254 304.690 C 361.153 300.189,361.100 302.237,361.094 195.234 C 361.088 97.811,361.017 92.750,359.587 88.395 C 357.317 81.479,350.517 80.549,346.274 86.573 C 345.309 87.945,343.611 90.004,342.501 91.149 C 341.391 92.294,340.158 93.832,339.760 94.566 C 339.363 95.300,338.298 96.635,337.393 97.532 C 331.669 103.210,329.580 105.172,329.075 105.346 C 328.761 105.454,327.337 106.419,325.912 107.490 C 324.487 108.561,323.078 109.438,322.782 109.438 C 322.485 109.438,321.834 109.878,321.335 110.416 C 320.575 111.236,320.157 111.373,318.746 111.262 C 317.095 111.133,317.083 111.122,318.094 110.682 C 318.661 110.435,319.393 109.714,319.721 109.079 C 320.049 108.444,320.827 107.662,321.450 107.340 C 322.122 106.992,322.683 106.331,322.830 105.713 C 323.207 104.130,325.137 101.375,326.765 100.095 C 327.566 99.466,328.691 98.214,329.266 97.313 C 329.841 96.412,331.151 94.880,332.177 93.908 C 333.204 92.937,334.481 91.272,335.015 90.208 C 336.294 87.665,338.866 83.514,339.758 82.555 C 340.594 81.656,342.020 78.631,342.032 77.731 C 342.044 76.788,345.381 72.530,346.347 72.225 C 348.568 71.524,348.914 69.550,347.692 64.563 C 346.819 61.005,339.939 53.835,336.010 52.391 C 333.234 51.370,331.985 50.230,330.457 47.322 C 328.908 44.375,328.245 43.764,325.661 42.901 C 323.864 42.301,320.755 40.731,317.198 38.629 C 314.709 37.157,313.127 36.782,307.086 36.232 C 304.534 36.000,300.759 35.353,298.697 34.795 L 294.948 33.780 206.292 33.715 C 157.531 33.679,116.414 33.794,114.921 33.969 M300.286 37.376 C 309.623 38.423,310.812 38.706,314.566 40.783 C 316.359 41.775,319.113 42.975,320.686 43.449 C 326.287 45.139,327.972 47.168,326.244 50.142 C 324.951 52.366,325.768 54.139,328.096 54.162 C 333.951 54.219,339.270 56.436,341.120 59.593 C 341.883 60.896,343.003 62.526,343.609 63.215 C 345.195 65.022,345.133 67.030,343.425 69.145 C 342.657 70.096,341.718 72.035,341.085 73.975 C 339.727 78.139,339.032 79.494,337.164 81.612 C 336.327 82.562,335.130 84.468,334.504 85.849 C 333.842 87.308,332.272 89.618,330.753 91.367 C 329.316 93.022,328.018 94.547,327.867 94.757 C 327.717 94.967,326.425 96.435,324.998 98.021 C 323.570 99.606,321.998 101.721,321.503 102.721 C 320.807 104.127,320.031 104.909,318.071 106.177 C 316.678 107.079,315.024 108.370,314.395 109.046 C 313.765 109.723,312.479 110.809,311.535 111.461 C 310.591 112.112,308.618 113.775,307.150 115.156 C 305.682 116.536,303.343 118.300,301.953 119.074 C 300.274 120.009,298.938 121.121,297.971 122.389 C 296.811 123.909,296.125 124.420,294.588 124.903 C 291.018 126.027,290.574 126.299,289.210 128.197 C 287.293 130.866,287.746 131.350,291.895 131.057 C 295.436 130.807,296.693 130.402,298.385 128.966 C 301.589 126.248,301.762 126.149,305.465 124.896 C 307.589 124.177,308.468 123.638,309.520 122.409 C 310.357 121.431,311.967 120.285,313.791 119.368 C 315.400 118.558,317.430 117.323,318.300 116.622 C 320.770 114.634,323.059 113.015,324.309 112.372 C 324.938 112.049,326.397 110.817,327.550 109.634 C 328.704 108.452,330.591 106.907,331.745 106.201 C 332.898 105.495,334.148 104.398,334.521 103.762 C 334.895 103.126,336.208 101.814,337.439 100.847 C 338.742 99.823,340.253 98.155,341.056 96.854 C 341.815 95.625,343.127 94.072,343.971 93.403 C 344.816 92.734,346.106 91.251,346.837 90.108 C 349.895 85.327,355.227 85.855,357.439 91.158 C 359.204 95.391,359.199 95.083,359.199 194.469 C 359.199 301.300,359.392 295.538,355.565 303.155 C 355.088 304.104,354.188 306.628,353.564 308.764 C 352.628 311.971,352.094 313.074,350.500 315.104 C 349.438 316.455,347.879 318.932,347.036 320.609 C 346.193 322.285,345.004 324.061,344.394 324.555 C 343.784 325.049,342.448 326.544,341.426 327.877 C 340.132 329.564,338.986 330.591,337.658 331.256 C 336.607 331.782,334.865 333.129,333.785 334.251 C 332.335 335.758,330.941 336.698,328.450 337.849 C 326.596 338.705,324.305 340.057,323.359 340.852 C 320.960 342.870,320.677 342.986,315.539 344.070 C 312.350 344.742,310.038 345.497,307.912 346.561 C 305.996 347.520,303.373 348.416,300.858 348.972 L 296.854 349.857 248.236 349.948 L 199.619 350.038 198.106 349.180 C 196.236 348.119,195.695 346.608,196.276 344.071 C 197.003 340.891,196.192 338.827,194.157 338.680 C 191.543 338.492,190.338 340.857,191.403 344.086 C 192.130 346.288,191.281 348.449,189.342 349.329 C 187.196 350.304,151.633 350.432,149.338 349.473 C 147.768 348.817,146.659 346.982,146.013 343.968 C 145.187 340.117,140.345 338.220,138.315 340.952 C 137.628 341.876,137.606 342.124,138.057 343.885 C 139.052 347.765,135.873 350.010,129.346 350.035 C 124.340 350.055,122.828 348.936,121.048 343.891 C 120.764 343.086,119.756 341.150,118.809 339.589 C 117.420 337.301,116.821 335.697,115.717 331.313 C 114.724 327.372,113.883 325.010,112.662 322.732 C 110.772 319.207,110.506 318.235,109.426 310.882 C 108.486 304.488,107.945 302.122,106.158 296.603 C 104.064 290.133,103.748 288.117,103.343 278.663 C 103.140 273.901,102.780 268.031,102.545 265.619 C 102.221 262.306,102.227 260.414,102.568 257.881 C 102.816 256.037,103.161 250.667,103.335 245.949 C 103.688 236.386,104.113 234.055,106.567 228.217 C 107.407 226.218,108.531 222.379,109.259 219.022 C 110.358 213.953,111.294 211.111,112.068 210.486 C 112.880 209.832,114.506 206.677,115.531 203.770 C 116.858 200.006,117.953 197.988,119.751 195.996 C 120.414 195.262,121.526 193.460,122.223 191.992 C 122.920 190.524,124.118 188.723,124.886 187.989 C 125.655 187.255,126.905 185.710,127.664 184.557 C 130.708 179.933,139.952 170.332,143.036 168.592 C 144.237 167.914,145.691 166.661,146.445 165.654 C 147.290 164.525,148.645 163.407,150.238 162.525 C 151.602 161.770,152.860 160.917,153.035 160.630 C 154.188 158.732,155.874 157.418,158.573 156.315 C 161.113 155.276,161.808 154.774,163.565 152.705 C 165.167 150.819,165.902 150.250,166.979 150.061 C 171.668 149.239,175.101 146.731,173.596 145.226 C 172.204 143.834,165.964 144.660,164.472 146.434 C 163.001 148.182,160.661 149.367,157.325 150.055 C 155.250 150.482,153.702 151.081,152.368 151.973 C 151.302 152.686,149.568 153.847,148.517 154.553 C 147.465 155.259,145.584 156.218,144.337 156.685 C 142.793 157.262,141.516 158.104,140.338 159.320 C 139.387 160.302,137.493 161.661,136.130 162.341 C 134.766 163.020,132.707 164.485,131.554 165.598 C 130.400 166.710,128.483 168.338,127.292 169.216 C 126.101 170.094,123.963 171.846,122.540 173.109 C 121.117 174.372,119.770 175.405,119.547 175.405 C 118.844 175.405,116.857 177.457,115.469 179.618 C 114.734 180.761,113.566 182.297,112.873 183.031 C 112.180 183.765,110.652 185.541,109.477 186.976 C 108.302 188.411,106.609 190.470,105.715 191.552 C 104.820 192.633,103.421 194.805,102.604 196.378 C 101.787 197.950,100.502 199.829,99.747 200.553 C 98.853 201.411,97.988 202.874,97.262 204.758 C 96.649 206.346,95.418 208.843,94.526 210.306 C 92.443 213.722,91.663 215.800,90.525 220.967 C 89.886 223.871,89.027 226.343,87.743 228.980 C 85.485 233.613,85.110 235.291,84.634 242.887 C 84.430 246.144,84.093 249.741,83.886 250.880 C 83.298 254.103,83.418 273.411,84.077 281.792 C 85.236 296.520,85.253 296.635,87.300 302.776 C 88.349 305.922,89.555 310.424,89.981 312.780 C 91.584 321.646,91.973 323.082,93.969 327.495 C 96.318 332.686,99.390 344.165,98.857 345.758 C 98.367 347.222,83.669 343.988,81.544 341.949 C 80.540 340.985,77.070 338.647,75.439 337.835 C 74.529 337.382,72.461 335.698,70.844 334.092 C 69.227 332.486,67.511 330.786,67.031 330.313 C 62.556 325.905,60.159 323.155,59.281 321.421 C 58.707 320.290,57.465 318.418,56.519 317.261 C 54.464 314.748,54.000 313.714,53.002 309.433 C 52.583 307.638,51.392 304.383,50.355 302.201 C 45.657 292.315,45.758 294.767,45.755 190.706 C 45.752 102.379,45.712 104.994,47.303 90.294 C 47.712 86.514,48.496 84.119,50.888 79.328 C 51.573 77.957,52.611 75.387,53.195 73.618 C 54.036 71.070,54.611 70.039,55.958 68.661 C 56.894 67.704,58.266 65.977,59.006 64.824 C 61.385 61.117,70.982 52.066,74.440 50.267 C 76.079 49.414,77.772 48.223,78.201 47.620 C 79.388 45.953,81.773 44.769,86.059 43.719 C 88.950 43.011,90.694 42.313,92.869 40.992 C 96.738 38.644,97.447 38.503,113.632 36.864 C 120.227 36.196,294.012 36.673,300.286 37.376 M203.993 46.562 C 203.096 49.893,204.124 52.240,206.481 52.240 L 208.169 52.240 208.733 50.340 C 209.719 47.019,208.919 45.219,206.392 45.071 L 204.425 44.957 203.993 46.562 M316.882 70.342 C 315.127 72.457,316.573 77.407,318.946 77.407 L 320.657 77.407 321.218 75.517 C 322.201 72.208,321.387 70.005,319.128 69.858 C 317.896 69.778,317.231 69.921,316.882 70.342 M298.189 90.753 L 298.189 92.660 300.095 92.660 L 302.002 92.660 302.002 90.753 L 302.002 88.847 300.095 88.847 L 298.189 88.847 298.189 90.753 M200.477 90.905 C 197.512 93.525,199.280 97.998,203.280 97.998 C 207.200 97.998,208.832 93.796,205.990 91.021 C 204.076 89.153,202.497 89.119,200.477 90.905 M281.983 101.236 C 281.773 101.306,281.154 101.461,280.607 101.581 C 277.157 102.336,277.729 111.191,281.281 112.004 C 287.786 113.492,289.950 107.896,284.916 102.605 C 283.546 101.165,282.983 100.902,281.983 101.236 M283.752 106.227 C 284.903 108.829,283.681 110.242,281.656 108.650 C 280.678 107.880,280.669 107.834,281.271 106.648 C 282.607 104.017,282.762 103.991,283.752 106.227 M209.068 113.774 C 205.376 114.761,203.879 119.757,206.733 121.565 C 208.894 122.933,215.162 118.907,214.532 116.556 C 214.410 116.101,214.307 115.425,214.305 115.053 C 214.295 113.858,211.400 113.151,209.068 113.774 M315.095 113.887 C 315.235 114.027,315.070 114.451,314.729 114.828 C 314.104 115.518,312.679 115.227,312.679 114.409 C 312.679 113.871,314.652 113.445,315.095 113.887 M260.285 118.583 C 259.299 121.904,260.099 123.704,262.626 123.851 L 264.593 123.966 265.025 122.361 C 265.923 119.029,264.894 116.683,262.537 116.683 L 260.849 116.683 260.285 118.583 M240.119 125.895 C 238.947 126.222,238.505 126.633,237.779 128.068 L 236.884 129.838 237.804 131.745 C 238.846 133.904,241.398 136.511,242.470 136.511 C 245.431 136.511,246.714 134.845,246.709 131.009 C 246.703 126.362,244.521 124.669,240.119 125.895 M244.032 129.445 C 244.447 129.945,244.417 130.300,243.847 131.563 C 242.969 133.511,242.278 133.481,241.402 131.459 C 240.238 128.770,242.215 127.256,244.032 129.445 M279.690 132.362 C 277.863 132.774,276.217 135.897,277.540 136.442 C 278.412 136.802,283.108 136.671,283.778 136.269 C 284.851 135.624,287.189 132.720,286.949 132.331 C 286.655 131.855,281.845 131.876,279.690 132.362 M218.365 132.593 C 217.047 132.790,215.443 135.996,215.443 138.433 C 215.443 142.925,218.453 144.928,222.685 143.253 C 226.928 141.573,226.983 138.562,222.848 134.318 C 220.927 132.347,220.669 132.248,218.365 132.593 M221.488 137.514 L 222.346 139.280 221.497 140.184 C 220.181 141.584,217.339 140.253,217.897 138.497 C 218.816 135.600,220.353 135.179,221.488 137.514 M198.064 145.411 C 197.947 145.715,197.906 146.625,197.973 147.434 L 198.093 148.904 200.000 148.904 L 201.907 148.904 201.907 146.997 L 201.907 145.091 200.091 144.974 C 198.777 144.890,198.218 145.010,198.064 145.411 M230.403 155.138 C 228.091 155.801,227.185 160.425,228.946 162.577 C 231.356 165.524,237.560 163.024,237.560 159.105 C 237.560 156.598,233.384 154.284,230.403 155.138 M177.693 157.199 C 176.453 157.640,176.350 157.801,176.243 159.464 L 176.128 161.255 178.048 161.825 C 181.250 162.776,183.186 162.006,183.336 159.723 C 183.503 157.166,180.970 156.033,177.693 157.199 M232.876 160.433 C 232.788 161.013,232.714 160.629,232.712 159.581 C 232.709 158.532,232.780 158.058,232.871 158.527 C 232.961 158.996,232.964 159.854,232.876 160.433 M158.818 169.803 C 157.345 170.266,157.293 170.338,157.293 171.947 L 157.293 173.611 159.308 174.268 C 161.304 174.919,162.659 174.779,164.252 173.759 C 164.890 173.350,164.861 170.652,164.213 170.114 C 163.405 169.444,160.495 169.276,158.818 169.803 M241.711 177.216 C 240.479 180.399,241.584 183.794,243.851 183.794 C 245.510 183.794,245.545 183.767,245.991 182.173 C 247.068 178.324,246.300 176.168,243.851 176.168 C 242.311 176.168,242.071 176.286,241.711 177.216 M141.924 190.732 L 142.040 192.755 143.947 192.755 L 145.853 192.755 145.853 190.848 L 145.853 188.942 143.831 188.826 L 141.808 188.710 141.924 190.732 M252.988 197.096 C 248.197 199.264,246.655 204.314,250.405 205.553 C 254.416 206.878,258.032 205.918,258.780 203.330 C 260.024 199.024,256.681 195.426,252.988 197.096 M255.747 201.024 L 256.633 201.856 255.623 202.911 L 254.613 203.965 253.166 203.227 C 251.078 202.162,251.032 201.794,252.881 200.955 C 254.911 200.034,254.687 200.028,255.747 201.024 M129.427 207.946 C 129.311 208.251,129.269 209.161,129.336 209.969 L 129.457 211.439 131.363 211.439 L 133.270 211.439 133.270 209.533 L 133.270 207.626 131.455 207.510 C 130.140 207.426,129.581 207.546,129.427 207.946 M256.530 222.303 C 254.501 224.459,254.525 226.203,256.607 227.931 C 260.852 231.456,265.744 226.599,262.313 222.267 C 260.610 220.116,258.575 220.129,256.530 222.303 M121.810 227.510 C 119.422 230.038,118.325 232.830,119.239 234.054 C 121.485 237.062,126.605 235.175,127.161 231.134 C 127.467 228.906,126.642 226.504,125.568 226.496 C 125.190 226.493,124.502 226.390,124.040 226.266 C 123.398 226.094,122.870 226.388,121.810 227.510 M256.512 247.395 C 254.549 249.405,254.559 250.985,256.546 252.925 C 259.417 255.729,263.489 254.074,263.489 250.104 C 263.489 246.185,259.287 244.553,256.512 247.395 M119.188 253.334 C 116.323 256.037,118.102 260.439,122.060 260.439 C 125.979 260.439,127.611 256.237,124.769 253.462 C 122.815 251.553,121.117 251.514,119.188 253.334 M254.499 270.482 C 254.382 270.786,254.341 271.697,254.407 272.505 L 254.528 273.975 256.435 273.975 L 258.341 273.975 258.341 272.069 L 258.341 270.162 256.526 270.046 C 255.212 269.961,254.652 270.082,254.499 270.482 M241.601 293.607 C 241.135 295.176,241.118 295.791,241.507 297.134 L 241.978 298.761 243.851 298.761 L 245.724 298.761 246.195 297.134 C 246.584 295.791,246.568 295.176,246.102 293.607 L 245.538 291.706 243.851 291.706 L 242.165 291.706 241.601 293.607 M229.015 312.297 C 228.515 313.984,228.515 314.424,229.015 316.111 L 229.581 318.017 231.269 318.017 C 233.322 318.017,233.889 317.235,233.891 314.395 C 233.893 311.263,233.327 310.391,231.292 310.391 L 229.581 310.391 229.015 312.297 M130.982 319.681 C 128.903 320.300,128.422 323.429,130.294 324.154 C 133.497 325.393,136.892 324.296,136.892 322.021 C 136.892 320.203,137.018 320.291,133.079 319.362 C 132.765 319.288,131.821 319.431,130.982 319.681 M210.646 326.921 C 209.894 328.880,210.610 330.029,212.583 330.029 L 214.490 330.029 214.490 328.313 L 214.490 326.597 212.675 326.480 C 211.355 326.396,210.801 326.516,210.646 326.921 " stroke="none" fill="#94c4cc" fill-rule="evenodd"></path><path id="path3" d="M112.679 40.425 C 106.162 40.736,102.831 41.416,99.647 43.085 C 98.426 43.725,94.852 44.925,91.706 45.751 C 85.699 47.329,83.377 48.281,82.507 49.523 C 82.219 49.935,80.481 51.085,78.646 52.078 C 76.811 53.071,74.688 54.528,73.928 55.315 C 73.168 56.102,72.053 57.010,71.450 57.333 C 70.320 57.937,68.049 60.122,65.944 62.631 C 65.284 63.418,64.548 64.068,64.307 64.075 C 63.855 64.090,61.976 66.487,61.058 68.219 C 60.770 68.764,59.843 70.044,58.997 71.064 C 58.151 72.084,57.215 73.627,56.917 74.493 C 56.619 75.358,56.252 76.239,56.102 76.451 C 55.683 77.041,54.659 80.404,54.171 82.792 C 53.930 83.971,53.219 85.746,52.591 86.736 C 49.434 91.714,49.489 89.664,49.643 196.568 C 49.792 300.078,49.582 292.240,52.314 295.948 C 53.431 297.465,54.018 298.887,54.494 301.239 C 55.943 308.389,57.075 311.547,58.860 313.419 C 59.571 314.165,60.751 316.113,61.482 317.748 C 62.213 319.383,63.135 321.050,63.531 321.454 C 63.927 321.857,65.110 323.046,66.158 324.095 C 67.207 325.145,68.701 326.652,69.478 327.444 C 75.245 333.323,76.899 334.696,79.671 335.906 C 81.231 336.587,83.237 337.786,84.129 338.571 C 85.165 339.483,86.551 340.224,87.966 340.621 C 92.052 341.767,92.120 341.766,93.173 340.515 L 94.133 339.374 93.147 336.440 C 92.605 334.827,91.674 332.810,91.079 331.958 C 90.265 330.794,89.757 329.229,89.028 325.643 C 87.273 317.004,86.481 314.031,85.546 312.569 C 83.692 309.671,82.212 301.176,81.580 289.800 C 81.229 283.506,80.656 280.204,79.369 277.080 C 77.636 272.874,77.763 255.389,79.552 251.668 C 81.290 248.055,81.257 248.223,81.624 241.211 C 82.105 232.031,83.408 225.959,85.395 223.642 C 86.073 222.852,86.942 220.212,88.944 212.866 C 89.838 209.585,90.407 208.230,91.360 207.117 C 92.046 206.315,93.575 203.786,94.758 201.495 C 95.940 199.205,97.310 196.988,97.801 196.568 C 98.291 196.149,99.495 194.279,100.475 192.412 C 101.797 189.895,103.036 188.234,105.275 185.980 C 106.935 184.309,108.294 182.703,108.294 182.412 C 108.294 182.121,109.327 180.824,110.589 179.530 C 111.852 178.236,113.332 176.470,113.878 175.607 C 114.426 174.740,116.134 173.129,117.694 172.007 C 119.247 170.890,120.678 169.676,120.874 169.309 C 121.071 168.941,121.796 168.373,122.484 168.046 C 123.173 167.719,124.893 166.313,126.305 164.920 C 128.879 162.384,132.445 159.665,135.034 158.264 C 135.795 157.852,136.511 157.269,136.627 156.968 C 136.743 156.667,138.008 155.877,139.439 155.212 C 144.514 152.853,145.920 152.005,146.538 150.927 C 147.088 149.968,151.382 147.569,152.547 147.569 C 153.708 147.569,157.405 145.732,159.022 144.352 C 160.670 142.945,161.456 142.593,164.644 141.835 C 169.317 140.723,171.112 139.956,172.513 138.470 C 173.861 137.041,174.778 136.737,180.172 135.937 C 185.078 135.210,189.246 134.052,189.932 133.226 C 192.096 130.618,200.772 129.794,203.094 131.976 C 205.384 134.128,204.068 137.250,200.381 138.411 C 198.145 139.115,198.069 139.374,199.887 140.084 C 204.579 141.916,206.938 146.792,204.679 149.989 C 201.537 154.438,196.110 153.149,194.277 147.520 C 193.444 144.962,192.698 144.039,191.835 144.501 C 190.975 144.961,184.852 146.425,183.787 146.425 C 182.642 146.425,180.615 147.717,178.601 149.732 C 177.693 150.639,176.613 151.382,176.200 151.382 C 175.285 151.382,174.795 152.069,175.330 152.604 C 175.546 152.819,177.200 153.146,179.006 153.329 C 184.428 153.878,186.845 155.733,186.845 159.344 C 186.845 164.467,181.423 166.748,174.839 164.395 C 169.939 162.644,168.618 156.901,172.724 155.200 C 173.652 154.816,173.803 154.609,173.458 154.193 C 172.468 153.000,168.171 154.156,166.660 156.022 C 166.076 156.743,164.453 157.760,160.153 160.101 C 158.999 160.728,157.578 161.759,156.995 162.391 C 156.412 163.023,155.623 163.639,155.242 163.760 C 154.860 163.881,154.355 164.406,154.118 164.926 C 153.808 165.605,153.385 165.872,152.620 165.872 C 151.839 165.872,151.051 166.390,149.675 167.809 C 148.641 168.874,147.303 170.001,146.700 170.313 C 144.840 171.274,142.085 173.536,141.399 174.664 C 141.040 175.255,140.382 175.932,139.938 176.170 C 139.037 176.653,137.006 178.814,135.387 181.013 C 134.802 181.809,133.604 183.228,132.726 184.167 C 131.847 185.106,130.615 186.774,129.986 187.872 C 129.358 188.971,128.331 190.347,127.704 190.931 C 127.077 191.515,125.532 193.920,124.270 196.276 C 123.008 198.632,121.683 200.777,121.325 201.043 C 120.176 201.894,119.338 203.569,117.848 207.992 C 117.047 210.369,115.833 213.126,115.150 214.119 C 113.858 215.997,113.072 218.115,112.466 221.354 C 112.269 222.402,111.954 223.947,111.764 224.786 C 111.574 225.624,111.068 227.888,110.638 229.817 C 110.209 231.745,109.340 234.319,108.708 235.537 C 104.886 242.899,105.101 279.880,109.024 289.827 C 109.818 291.843,110.401 294.434,110.951 298.407 C 112.502 309.600,113.534 314.227,114.946 316.307 C 115.817 317.590,116.137 318.636,118.016 326.339 C 119.060 330.615,119.906 332.726,121.590 335.256 C 122.188 336.156,123.239 338.780,123.925 341.087 C 125.647 346.881,127.345 348.065,131.528 346.391 L 133.171 345.734 132.967 343.982 C 132.363 338.796,133.631 336.770,137.997 335.946 C 145.145 334.598,149.476 337.809,149.476 344.458 C 149.476 346.983,149.582 346.997,168.932 346.997 C 189.699 346.997,188.059 347.392,188.132 342.368 C 188.175 339.435,188.283 338.984,189.248 337.720 C 193.282 332.432,199.671 335.485,199.576 342.657 C 199.512 347.487,194.117 346.997,247.357 346.997 C 297.133 346.997,295.832 347.051,298.981 344.876 C 299.877 344.257,302.039 343.553,305.273 342.827 C 315.448 340.541,317.635 339.890,319.285 338.656 C 320.161 338.001,322.250 336.763,323.928 335.904 C 328.112 333.762,329.532 332.867,330.326 331.872 C 330.700 331.405,332.248 330.336,333.768 329.498 C 336.812 327.817,337.496 327.168,339.348 324.206 C 340.038 323.101,340.974 321.900,341.426 321.537 C 341.878 321.174,343.258 319.104,344.491 316.937 C 345.724 314.769,347.212 312.642,347.797 312.210 C 349.128 311.226,350.209 308.574,351.182 303.908 C 352.302 298.532,353.031 295.936,354.039 293.729 C 356.503 288.333,356.339 295.409,356.339 194.280 C 356.339 92.964,356.570 101.607,353.714 95.710 C 351.642 91.431,351.248 91.344,348.392 94.532 C 347.939 95.037,346.870 96.153,346.015 97.010 C 345.161 97.868,344.024 99.171,343.490 99.905 C 341.550 102.571,336.835 107.057,334.441 108.516 C 333.092 109.337,331.376 110.793,330.628 111.751 C 329.879 112.709,328.151 114.254,326.789 115.183 C 325.426 116.113,323.710 117.491,322.976 118.247 C 322.241 119.003,319.900 120.589,317.773 121.772 C 315.646 122.956,313.810 124.174,313.692 124.480 C 313.575 124.787,312.741 125.411,311.839 125.868 C 310.938 126.325,310.114 126.826,310.010 126.980 C 309.905 127.135,308.741 127.803,307.425 128.465 C 306.108 129.128,304.704 129.996,304.304 130.396 C 303.013 131.686,301.854 132.273,298.234 133.466 C 294.280 134.769,293.282 135.301,291.296 137.163 C 290.217 138.175,289.263 138.597,286.721 139.186 C 280.650 140.591,279.136 141.163,277.476 142.681 C 275.655 144.346,274.012 144.934,268.637 145.848 C 263.166 146.777,261.129 147.407,259.559 148.655 C 256.959 150.721,253.876 151.510,249.352 151.268 C 242.010 150.875,240.417 150.189,240.806 147.591 C 241.272 144.483,242.821 143.456,248.548 142.456 C 252.005 141.852,253.441 141.196,255.407 139.320 C 257.617 137.211,262.209 135.367,265.251 135.367 C 266.619 135.367,269.174 133.979,270.936 132.279 C 272.121 131.137,273.301 130.525,276.084 129.611 C 281.446 127.851,282.519 127.336,283.397 126.104 C 284.120 125.089,288.615 122.675,291.363 121.826 C 291.866 121.671,293.152 120.750,294.220 119.780 C 295.287 118.811,297.242 117.417,298.563 116.683 C 299.885 115.949,301.764 114.576,302.740 113.632 C 307.562 108.968,311.434 105.810,316.323 102.554 C 317.186 101.979,318.643 100.089,321.087 96.375 C 321.743 95.378,322.567 94.348,322.918 94.087 C 323.269 93.826,324.728 92.196,326.161 90.464 C 327.593 88.732,329.065 87.101,329.432 86.841 C 330.402 86.152,331.973 83.518,333.115 80.664 C 333.664 79.294,334.531 77.786,335.042 77.313 C 336.245 76.202,336.809 75.128,338.217 71.271 C 341.338 62.719,337.939 58.420,328.005 58.355 C 321.949 58.315,319.353 55.253,320.908 49.985 C 321.572 47.737,319.837 46.554,313.632 45.027 C 311.745 44.563,309.428 43.699,308.484 43.107 C 303.999 40.295,298.865 40.015,252.611 40.067 C 207.199 40.117,207.684 40.077,210.641 43.532 C 213.048 46.343,212.493 53.677,209.644 56.710 C 208.578 57.845,204.553 57.973,203.301 56.911 C 200.482 54.521,199.728 46.125,202.099 43.530 C 203.500 41.995,203.510 41.757,202.210 40.905 C 201.100 40.178,126.253 39.776,112.679 40.425 M321.671 67.131 C 324.620 68.953,325.457 73.067,323.911 78.136 C 321.275 86.776,313.060 83.134,313.060 73.325 C 313.060 67.993,317.683 64.666,321.671 67.131 M206.423 67.200 C 212.310 68.416,212.757 75.386,207.027 76.615 C 200.160 78.087,195.615 76.198,195.615 71.873 C 195.615 67.806,200.057 65.885,206.423 67.200 M303.018 85.955 C 307.766 89.182,305.740 96.473,300.095 96.473 C 297.373 96.473,294.376 93.599,294.376 90.990 C 294.376 86.402,299.382 83.485,303.018 85.955 M206.614 85.923 C 210.682 86.873,212.479 91.169,211.207 96.901 C 210.483 100.166,209.431 101.147,205.950 101.804 C 197.223 103.450,193.033 98.482,195.611 89.545 C 196.590 86.154,201.160 84.649,206.614 85.923 M285.902 98.589 C 290.760 100.118,292.203 102.352,292.194 108.325 C 292.187 112.715,291.219 113.723,285.808 114.978 C 278.857 116.590,275.495 113.911,275.507 106.768 C 275.516 101.172,276.812 98.833,280.372 97.987 C 282.314 97.525,282.634 97.560,285.902 98.589 M215.263 111.075 C 219.505 113.856,218.622 122.830,213.863 125.291 C 211.188 126.674,206.000 127.057,203.994 126.020 C 200.656 124.294,200.310 114.780,203.489 112.159 C 204.638 111.212,205.550 110.893,209.533 110.047 C 210.979 109.740,214.073 110.295,215.263 111.075 M265.611 112.222 C 266.910 113.339,268.024 116.217,268.318 119.211 C 269.025 126.411,263.412 130.417,258.943 125.901 C 256.356 123.286,256.110 121.334,257.670 115.780 C 258.856 111.558,262.790 109.795,265.611 112.222 M245.779 123.010 C 252.396 126.150,250.772 140.324,243.795 140.324 C 241.412 140.324,236.292 138.240,234.966 136.730 C 233.098 134.602,232.290 128.281,233.570 125.806 C 234.924 123.189,242.500 121.454,245.779 123.010 M223.367 129.857 C 228.208 131.381,229.712 133.683,229.707 139.561 C 229.705 142.916,229.305 143.802,227.193 145.136 C 218.251 150.781,210.415 146.232,212.007 136.320 C 213.037 129.909,216.776 127.782,223.367 129.857 M235.365 149.913 C 242.175 152.249,244.586 160.464,239.785 164.968 C 234.580 169.849,231.046 170.944,228.656 168.414 C 223.320 162.764,222.153 159.360,224.269 155.610 C 227.730 149.479,230.281 148.168,235.365 149.913 M163.311 166.225 C 165.949 166.838,168.160 169.523,168.160 172.114 C 168.160 173.295,168.000 174.261,167.805 174.261 C 167.609 174.261,167.338 174.611,167.202 175.039 C 166.023 178.755,156.000 178.693,152.812 174.950 C 148.704 170.125,155.563 164.427,163.311 166.225 M246.887 173.594 C 249.746 175.467,250.542 180.137,248.821 184.933 C 246.875 190.352,240.827 190.352,238.882 184.933 C 236.000 176.904,241.041 169.763,246.887 173.594 M147.770 187.025 C 150.480 189.736,149.983 193.534,146.647 195.596 C 141.188 198.969,135.433 191.444,139.988 186.889 C 142.379 184.499,145.294 184.549,147.770 187.025 M257.645 192.560 C 261.009 192.577,263.539 202.085,261.219 205.993 C 258.673 210.283,248.421 210.510,245.785 206.335 C 241.775 199.982,247.643 191.555,255.481 192.410 C 256.215 192.490,257.189 192.558,257.645 192.560 M135.186 205.710 C 138.781 209.304,136.427 215.062,131.363 215.062 C 128.375 215.062,125.834 212.620,125.834 209.747 C 125.834 204.425,131.469 201.993,135.186 205.710 M264.915 217.870 C 266.743 218.816,267.396 220.429,267.559 224.402 C 267.850 231.526,266.333 233.174,259.485 233.174 C 252.637 233.174,251.120 231.526,251.412 224.402 C 251.668 218.147,253.210 216.875,260.250 217.116 C 262.511 217.194,264.104 217.451,264.915 217.870 M127.874 223.784 C 132.997 226.583,131.220 237.745,125.405 239.293 C 117.668 241.352,113.267 237.946,114.411 230.784 C 115.416 224.494,122.465 220.829,127.874 223.784 M262.966 242.323 C 266.534 243.252,267.684 245.157,267.684 250.143 C 267.684 255.129,266.534 257.034,262.966 257.963 C 257.255 259.451,252.515 257.739,251.690 253.891 C 249.709 244.656,254.207 240.041,262.966 242.323 M125.614 248.602 C 130.160 249.656,132.047 257.392,128.948 262.269 C 127.033 265.283,117.523 265.508,115.410 262.590 C 113.108 259.412,113.188 252.454,115.556 249.934 C 116.975 248.424,121.986 247.760,125.614 248.602 M259.545 267.513 C 262.907 270.077,262.708 274.608,259.135 276.816 C 253.676 280.189,247.921 272.665,252.476 268.110 C 254.487 266.098,257.371 265.854,259.545 267.513 M126.358 273.791 C 130.443 274.999,131.027 280.468,127.278 282.406 C 124.161 284.018,117.069 283.387,115.350 281.344 C 111.077 276.266,118.200 271.379,126.358 273.791 M246.952 287.417 C 249.916 290.139,250.746 297.885,248.325 300.227 C 246.044 302.433,245.460 302.765,243.851 302.765 C 240.121 302.765,237.611 299.129,238.044 294.354 C 238.517 289.147,240.538 286.368,243.851 286.368 C 245.458 286.368,246.017 286.557,246.952 287.417 M127.706 293.023 C 131.219 294.840,131.198 305.362,127.678 307.182 C 123.019 309.591,119.733 305.970,120.214 298.957 C 120.598 293.357,123.661 290.931,127.706 293.023 M234.481 306.101 C 236.714 308.178,237.918 315.009,236.557 317.877 C 233.583 324.144,225.683 321.814,225.612 314.649 C 225.535 306.968,230.386 302.293,234.481 306.101 M137.735 316.914 C 143.239 318.702,143.605 324.850,138.329 326.857 C 131.565 329.431,125.834 327.144,125.834 321.872 C 125.834 317.202,131.439 314.867,137.735 316.914 M215.296 323.382 C 219.237 325.818,219.220 330.411,215.262 333.098 C 210.594 336.265,204.396 329.499,207.966 325.134 C 210.076 322.556,212.875 321.886,215.296 323.382 " stroke="none" fill="#047c8c" fill-rule="evenodd"></path><path id="path4" d="M114.395 37.993 C 102.657 38.802,99.243 39.570,92.721 42.864 C 91.743 43.358,89.571 44.066,87.893 44.438 C 83.858 45.332,82.987 45.736,80.188 48.004 C 78.886 49.060,76.913 50.380,75.803 50.939 C 72.327 52.689,61.706 62.729,59.688 66.173 C 59.114 67.151,57.813 68.871,56.796 69.994 C 55.252 71.699,54.758 72.641,53.800 75.705 C 53.169 77.722,51.775 81.419,50.703 83.918 C 47.262 91.935,47.534 83.425,47.387 187.798 C 47.235 296.443,47.056 290.766,50.910 299.342 C 51.870 301.479,53.082 305.053,53.604 307.285 C 54.626 311.661,55.119 312.785,57.067 315.189 C 57.761 316.046,59.061 318.188,59.956 319.951 C 61.126 322.256,62.019 323.477,63.140 324.304 C 63.997 324.936,65.369 326.374,66.191 327.499 C 67.012 328.625,68.379 330.026,69.230 330.612 C 70.080 331.199,71.593 332.635,72.592 333.804 C 73.956 335.402,75.229 336.356,77.718 337.646 C 79.540 338.590,81.973 340.085,83.127 340.968 C 86.337 343.425,94.308 344.913,95.874 343.347 C 97.398 341.823,96.417 336.890,93.215 329.979 C 91.447 326.161,90.703 323.530,89.824 317.976 C 89.505 315.961,88.572 312.437,87.751 310.146 C 84.873 302.110,83.523 294.606,83.510 286.559 C 83.508 285.091,83.151 281.830,82.718 279.314 C 81.432 271.843,81.219 256.747,82.339 252.431 C 82.875 250.364,83.303 247.118,83.520 243.470 C 84.122 233.348,84.703 230.655,87.311 225.903 C 88.466 223.798,89.152 221.804,89.989 218.120 C 91.169 212.920,91.754 211.487,94.346 207.436 C 95.218 206.072,96.246 204.124,96.631 203.106 C 97.015 202.088,97.785 200.715,98.343 200.055 C 100.241 197.810,101.321 196.190,102.574 193.709 C 103.262 192.346,104.816 190.201,106.029 188.942 C 107.241 187.684,108.934 185.600,109.792 184.312 C 110.650 183.024,111.786 181.686,112.315 181.339 C 112.845 180.992,114.020 179.557,114.927 178.152 C 116.026 176.447,117.117 175.278,118.202 174.643 C 119.097 174.118,121.105 172.531,122.664 171.115 C 124.223 169.700,125.670 168.541,125.881 168.541 C 126.091 168.541,127.597 167.271,129.226 165.719 C 130.856 164.167,133.205 162.377,134.445 161.742 C 135.686 161.107,137.132 160.189,137.658 159.703 C 140.385 157.180,141.578 156.365,143.435 155.761 C 144.712 155.346,146.502 154.254,148.234 152.835 C 150.886 150.661,152.582 149.860,156.911 148.737 C 157.750 148.519,159.377 147.626,160.525 146.751 C 163.004 144.865,165.056 143.920,167.398 143.589 C 170.662 143.127,172.554 142.477,174.593 141.118 C 178.073 138.797,178.996 138.424,182.305 138.005 C 188.376 137.236,191.002 138.047,190.419 140.511 C 189.878 142.799,188.767 143.366,183.956 143.806 C 179.379 144.225,178.660 144.534,177.061 146.765 C 175.707 148.653,174.733 149.232,170.558 150.625 C 167.655 151.595,166.972 152.003,165.240 153.805 C 163.721 155.386,162.636 156.108,160.627 156.876 C 158.728 157.601,157.298 158.520,155.467 160.190 C 154.075 161.461,152.063 162.936,150.996 163.467 C 149.930 163.999,148.594 165.042,148.028 165.787 C 146.506 167.785,145.402 168.778,143.924 169.480 C 141.849 170.465,131.148 181.603,129.073 184.938 C 128.486 185.882,127.202 187.538,126.219 188.619 C 125.236 189.700,123.728 191.937,122.868 193.590 C 122.008 195.243,120.763 197.276,120.100 198.107 C 118.217 200.470,117.194 202.440,116.294 205.436 C 115.837 206.957,114.632 209.584,113.617 211.274 C 111.305 215.121,110.777 216.594,110.009 221.335 C 109.671 223.422,109.088 225.995,108.713 227.054 C 108.339 228.114,107.304 231.039,106.415 233.556 L 104.798 238.132 104.463 246.139 C 104.278 250.543,103.949 255.754,103.730 257.719 C 103.455 260.200,103.455 262.822,103.733 266.299 C 103.953 269.053,104.285 274.309,104.472 277.979 C 104.846 285.335,105.379 288.398,107.324 294.376 C 108.819 298.971,109.187 300.740,110.023 307.340 C 110.712 312.782,111.161 315.011,111.903 316.665 C 114.164 321.708,115.591 325.701,116.447 329.379 C 117.394 333.444,118.117 335.200,120.327 338.799 C 120.842 339.638,121.693 341.712,122.218 343.407 C 123.611 347.906,124.924 348.904,129.450 348.904 C 134.401 348.904,137.082 346.632,135.571 343.719 C 135.061 342.737,135.072 342.043,135.630 340.003 C 136.120 338.210,140.643 337.351,143.847 338.443 C 145.895 339.141,146.606 340.306,147.265 344.046 C 147.592 345.904,147.955 346.696,148.923 347.664 L 150.162 348.904 168.789 348.898 C 182.912 348.894,187.647 348.777,188.370 348.416 C 189.845 347.679,190.666 345.726,190.205 344.055 C 189.176 340.326,190.783 337.464,193.906 337.464 C 196.896 337.464,197.330 338.136,197.335 342.772 C 197.340 347.042,197.858 348.266,199.831 348.660 C 200.501 348.794,222.286 348.904,248.243 348.904 L 295.438 348.904 299.959 347.529 C 302.446 346.773,305.682 345.672,307.150 345.082 C 308.618 344.492,311.676 343.658,313.946 343.229 C 318.043 342.455,319.476 341.843,322.285 339.669 C 323.059 339.070,325.138 337.912,326.905 337.095 C 328.955 336.148,330.931 334.865,332.362 333.550 C 333.595 332.417,335.449 331.075,336.481 330.569 C 337.670 329.985,338.859 328.976,339.723 327.819 C 340.473 326.814,342.057 324.884,343.242 323.532 C 344.428 322.179,345.903 319.992,346.521 318.672 C 347.139 317.352,348.611 315.020,349.793 313.490 C 350.975 311.961,352.106 310.080,352.306 309.311 C 352.507 308.542,352.942 306.844,353.274 305.538 C 353.606 304.233,354.539 301.316,355.348 299.056 C 358.537 290.147,358.246 300.658,358.246 194.471 L 358.246 100.095 357.042 96.010 C 355.687 91.411,354.706 89.764,352.861 88.993 C 351.155 88.281,348.766 89.176,347.899 90.852 C 347.573 91.484,345.949 93.440,344.291 95.200 C 342.634 96.960,341.277 98.541,341.277 98.714 C 341.277 99.341,334.020 106.153,331.861 107.551 C 330.644 108.340,329.138 109.694,328.517 110.558 C 327.895 111.423,326.608 112.585,325.657 113.141 C 324.706 113.697,322.972 114.945,321.804 115.915 C 320.636 116.885,318.225 118.496,316.447 119.494 C 314.668 120.492,312.236 122.143,311.042 123.162 C 309.847 124.181,307.885 125.384,306.680 125.834 C 305.476 126.285,304.402 126.770,304.295 126.912 C 302.791 128.899,298.369 131.244,294.436 132.138 C 292.209 132.645,291.390 133.057,289.840 134.450 C 287.351 136.688,285.367 137.513,281.220 138.037 C 276.567 138.624,275.451 139.028,273.424 140.855 C 270.712 143.301,270.217 143.474,265.403 143.666 C 259.846 143.887,258.996 143.433,259.795 140.667 C 260.390 138.605,261.434 138.173,266.950 137.706 C 271.251 137.343,272.211 136.873,273.705 134.399 C 274.847 132.508,276.618 131.562,280.458 130.792 C 283.175 130.246,284.600 129.441,286.409 127.425 C 287.423 126.296,288.558 125.625,291.067 124.672 C 293.803 123.633,294.779 123.023,296.642 121.189 C 297.884 119.966,299.641 118.637,300.546 118.235 C 301.452 117.833,303.410 116.418,304.898 115.091 C 310.632 109.976,315.993 105.624,316.559 105.624 C 317.178 105.624,320.361 102.244,321.636 100.232 C 322.267 99.237,325.075 95.710,327.875 92.395 C 331.400 88.221,333.312 85.606,334.090 83.891 C 334.708 82.528,335.604 80.984,336.082 80.459 C 337.758 78.616,339.303 75.660,340.269 72.450 C 340.805 70.667,341.504 68.866,341.821 68.446 C 343.395 66.363,340.825 59.590,337.776 57.789 C 336.422 56.989,331.268 56.075,328.040 56.062 C 323.581 56.043,321.618 53.213,323.869 50.049 L 324.857 48.661 324.011 47.129 C 323.426 46.070,322.753 45.455,321.830 45.136 C 321.096 44.882,319.209 44.249,317.636 43.729 C 314.929 42.833,309.130 40.455,307.579 39.603 C 304.700 38.021,302.414 37.983,207.054 37.928 C 157.035 37.899,115.338 37.928,114.395 37.993 M202.210 40.905 C 203.510 41.757,203.500 41.995,202.099 43.530 C 199.728 46.125,200.482 54.521,203.301 56.911 C 204.553 57.973,208.578 57.845,209.644 56.710 C 212.493 53.677,213.048 46.343,210.641 43.532 C 207.684 40.077,207.199 40.117,252.611 40.067 C 298.865 40.015,303.999 40.295,308.484 43.107 C 309.428 43.699,311.745 44.563,313.632 45.027 C 319.837 46.554,321.572 47.737,320.908 49.985 C 319.353 55.253,321.949 58.315,328.005 58.355 C 337.939 58.420,341.338 62.719,338.217 71.271 C 336.809 75.128,336.245 76.202,335.042 77.313 C 334.531 77.786,333.664 79.294,333.115 80.664 C 331.973 83.518,330.402 86.152,329.432 86.841 C 329.065 87.101,327.593 88.732,326.161 90.464 C 324.728 92.196,323.269 93.826,322.918 94.087 C 322.567 94.348,321.743 95.378,321.087 96.375 C 318.643 100.089,317.186 101.979,316.323 102.554 C 311.434 105.810,307.562 108.968,302.740 113.632 C 301.764 114.576,299.885 115.949,298.563 116.683 C 297.242 117.417,295.287 118.811,294.220 119.780 C 293.152 120.750,291.866 121.671,291.363 121.826 C 288.615 122.675,284.120 125.089,283.397 126.104 C 282.519 127.336,281.446 127.851,276.084 129.611 C 273.301 130.525,272.121 131.137,270.936 132.279 C 269.174 133.979,266.619 135.367,265.251 135.367 C 262.209 135.367,257.617 137.211,255.407 139.320 C 253.441 141.196,252.005 141.852,248.548 142.456 C 242.821 143.456,241.272 144.483,240.806 147.591 C 240.490 149.698,240.776 150.001,243.661 150.623 C 250.314 152.059,256.191 151.331,259.559 148.655 C 261.129 147.407,263.166 146.777,268.637 145.848 C 274.012 144.934,275.655 144.346,277.476 142.681 C 279.136 141.163,280.650 140.591,286.721 139.186 C 289.263 138.597,290.217 138.175,291.296 137.163 C 293.282 135.301,294.280 134.769,298.234 133.466 C 301.854 132.273,303.013 131.686,304.304 130.396 C 304.704 129.996,306.108 129.128,307.425 128.465 C 308.741 127.803,309.905 127.135,310.010 126.980 C 310.114 126.826,310.938 126.325,311.839 125.868 C 312.741 125.411,313.575 124.787,313.692 124.480 C 313.810 124.174,315.646 122.956,317.773 121.772 C 319.900 120.589,322.241 119.003,322.976 118.247 C 323.710 117.491,325.426 116.113,326.789 115.183 C 328.151 114.254,329.879 112.709,330.628 111.751 C 331.376 110.793,333.092 109.337,334.441 108.516 C 336.835 107.057,341.550 102.571,343.490 99.905 C 344.024 99.171,345.161 97.868,346.015 97.010 C 346.870 96.153,347.939 95.037,348.392 94.532 C 351.248 91.344,351.642 91.431,353.714 95.710 C 356.570 101.607,356.339 92.964,356.339 194.280 C 356.339 295.409,356.503 288.333,354.039 293.729 C 353.031 295.936,352.302 298.532,351.182 303.908 C 350.209 308.574,349.128 311.226,347.797 312.210 C 347.212 312.642,345.724 314.769,344.491 316.937 C 343.258 319.104,341.878 321.174,341.426 321.537 C 340.974 321.900,340.038 323.101,339.348 324.206 C 337.496 327.168,336.812 327.817,333.768 329.498 C 332.248 330.336,330.700 331.405,330.326 331.872 C 329.532 332.867,328.112 333.762,323.928 335.904 C 322.250 336.763,320.161 338.001,319.285 338.656 C 317.635 339.890,315.448 340.541,305.273 342.827 C 302.039 343.553,299.877 344.257,298.981 344.876 C 295.832 347.051,297.133 346.997,247.357 346.997 C 194.117 346.997,199.512 347.487,199.576 342.657 C 199.671 335.485,193.282 332.432,189.248 337.720 C 188.283 338.984,188.175 339.435,188.132 342.368 C 188.059 347.392,189.699 346.997,168.932 346.997 C 149.582 346.997,149.476 346.983,149.476 344.458 C 149.476 337.809,145.145 334.598,137.997 335.946 C 133.631 336.770,132.363 338.796,132.967 343.982 L 133.171 345.734 131.528 346.391 C 127.345 348.065,125.647 346.881,123.925 341.087 C 123.239 338.780,122.188 336.156,121.590 335.256 C 119.906 332.726,119.060 330.615,118.016 326.339 C 116.137 318.636,115.817 317.590,114.946 316.307 C 113.534 314.227,112.502 309.600,110.951 298.407 C 110.401 294.434,109.818 291.843,109.024 289.827 C 105.101 279.880,104.886 242.899,108.708 235.537 C 109.340 234.319,110.209 231.745,110.638 229.817 C 111.068 227.888,111.574 225.624,111.764 224.786 C 111.954 223.947,112.269 222.402,112.466 221.354 C 113.072 218.115,113.858 215.997,115.150 214.119 C 115.833 213.126,117.047 210.369,117.848 207.992 C 119.338 203.569,120.176 201.894,121.325 201.043 C 121.683 200.777,123.008 198.632,124.270 196.276 C 125.532 193.920,127.077 191.515,127.704 190.931 C 128.331 190.347,129.358 188.971,129.986 187.872 C 130.615 186.774,131.847 185.106,132.726 184.167 C 133.604 183.228,134.802 181.809,135.387 181.013 C 137.006 178.814,139.037 176.653,139.938 176.170 C 140.382 175.932,141.040 175.255,141.399 174.664 C 142.085 173.536,144.840 171.274,146.700 170.313 C 147.303 170.001,148.641 168.874,149.675 167.809 C 151.051 166.390,151.839 165.872,152.620 165.872 C 153.385 165.872,153.808 165.605,154.118 164.926 C 154.355 164.406,154.860 163.881,155.242 163.760 C 155.623 163.639,156.412 163.023,156.995 162.391 C 157.578 161.759,158.999 160.728,160.153 160.101 C 164.453 157.760,166.076 156.743,166.660 156.022 C 168.171 154.156,172.468 153.000,173.458 154.193 C 173.803 154.609,173.652 154.816,172.724 155.200 C 168.618 156.901,169.939 162.644,174.839 164.395 C 181.423 166.748,186.845 164.467,186.845 159.344 C 186.845 155.733,184.428 153.878,179.006 153.329 C 177.200 153.146,175.546 152.819,175.330 152.604 C 174.795 152.069,175.285 151.382,176.200 151.382 C 176.613 151.382,177.693 150.639,178.601 149.732 C 180.615 147.717,182.642 146.425,183.787 146.425 C 184.852 146.425,190.975 144.961,191.835 144.501 C 192.698 144.039,193.444 144.962,194.277 147.520 C 196.110 153.149,201.537 154.438,204.679 149.989 C 206.938 146.792,204.579 141.916,199.887 140.084 C 198.069 139.374,198.145 139.115,200.381 138.411 C 204.068 137.250,205.384 134.128,203.094 131.976 C 200.772 129.794,192.096 130.618,189.932 133.226 C 189.246 134.052,185.078 135.210,180.172 135.937 C 174.778 136.737,173.861 137.041,172.513 138.470 C 171.112 139.956,169.317 140.723,164.644 141.835 C 161.456 142.593,160.670 142.945,159.022 144.352 C 157.405 145.732,153.708 147.569,152.547 147.569 C 151.382 147.569,147.088 149.968,146.538 150.927 C 145.920 152.005,144.514 152.853,139.439 155.212 C 138.008 155.877,136.743 156.667,136.627 156.968 C 136.511 157.269,135.795 157.852,135.034 158.264 C 132.445 159.665,128.879 162.384,126.305 164.920 C 124.893 166.313,123.173 167.719,122.484 168.046 C 121.796 168.373,121.071 168.941,120.874 169.309 C 120.678 169.676,119.247 170.890,117.694 172.007 C 116.134 173.129,114.426 174.740,113.878 175.607 C 113.332 176.470,111.852 178.236,110.589 179.530 C 109.327 180.824,108.294 182.121,108.294 182.412 C 108.294 182.703,106.935 184.309,105.275 185.980 C 103.036 188.234,101.797 189.895,100.475 192.412 C 99.495 194.279,98.291 196.149,97.801 196.568 C 97.310 196.988,95.940 199.205,94.758 201.495 C 93.575 203.786,92.046 206.315,91.360 207.117 C 90.407 208.230,89.838 209.585,88.944 212.866 C 86.942 220.212,86.073 222.852,85.395 223.642 C 83.408 225.959,82.105 232.031,81.624 241.211 C 81.257 248.223,81.290 248.055,79.552 251.668 C 77.763 255.389,77.636 272.874,79.369 277.080 C 80.656 280.204,81.229 283.506,81.580 289.800 C 82.212 301.176,83.692 309.671,85.546 312.569 C 86.481 314.031,87.273 317.004,89.028 325.643 C 89.757 329.229,90.265 330.794,91.079 331.958 C 91.674 332.810,92.605 334.827,93.147 336.440 L 94.133 339.374 93.173 340.515 C 92.120 341.766,92.052 341.767,87.966 340.621 C 86.551 340.224,85.165 339.483,84.129 338.571 C 83.237 337.786,81.231 336.587,79.671 335.906 C 76.899 334.696,75.245 333.323,69.478 327.444 C 68.701 326.652,67.207 325.145,66.158 324.095 C 65.110 323.046,63.927 321.857,63.531 321.454 C 63.135 321.050,62.213 319.383,61.482 317.748 C 60.751 316.113,59.571 314.165,58.860 313.419 C 57.075 311.547,55.943 308.389,54.494 301.239 C 54.018 298.887,53.431 297.465,52.314 295.948 C 49.582 292.240,49.792 300.078,49.643 196.568 C 49.489 89.664,49.434 91.714,52.591 86.736 C 53.219 85.746,53.930 83.971,54.171 82.792 C 54.659 80.404,55.683 77.041,56.102 76.451 C 56.252 76.239,56.619 75.358,56.917 74.493 C 57.215 73.627,58.151 72.084,58.997 71.064 C 59.843 70.044,60.770 68.764,61.058 68.219 C 61.976 66.487,63.855 64.090,64.307 64.075 C 64.548 64.068,65.284 63.418,65.944 62.631 C 68.049 60.122,70.320 57.937,71.450 57.333 C 72.053 57.010,73.168 56.102,73.928 55.315 C 74.688 54.528,76.811 53.071,78.646 52.078 C 80.481 51.085,82.219 49.935,82.507 49.523 C 83.377 48.281,85.699 47.329,91.706 45.751 C 94.852 44.925,98.426 43.725,99.647 43.085 C 105.094 40.230,106.939 40.141,159.788 40.190 C 198.732 40.227,201.239 40.269,202.210 40.905 M208.990 44.455 C 210.299 45.851,210.327 50.847,209.038 53.289 C 206.593 57.921,201.788 53.104,202.711 46.946 C 203.216 43.578,206.824 42.147,208.990 44.455 M315.675 67.480 C 312.961 69.717,312.370 73.124,313.845 78.034 C 316.520 86.942,324.739 83.220,324.629 73.149 C 324.568 67.521,319.510 64.319,315.675 67.480 M199.643 67.268 C 194.132 68.575,193.994 75.443,199.456 76.615 C 206.318 78.086,210.867 76.198,210.867 71.878 C 210.867 67.745,206.021 65.754,199.643 67.268 M321.676 69.441 C 322.765 70.646,322.662 75.783,321.499 78.265 C 320.671 80.033,320.609 80.076,318.932 80.076 L 317.212 80.076 316.191 77.884 C 314.815 74.930,314.785 71.001,316.127 69.572 C 317.324 68.299,320.574 68.222,321.676 69.441 M206.405 69.670 L 208.233 70.325 208.121 72.019 C 207.858 75.955,198.284 75.836,198.284 71.896 C 198.284 69.305,202.308 68.201,206.405 69.670 M297.004 86.084 C 292.456 89.465,294.541 96.473,300.095 96.473 C 302.830 96.473,305.815 93.600,305.815 90.968 C 305.815 86.295,300.605 83.407,297.004 86.084 M199.688 85.942 C 195.811 86.865,194.030 91.289,195.275 96.901 C 195.999 100.166,197.052 101.147,200.533 101.804 C 209.259 103.450,213.449 98.482,210.871 89.545 C 209.892 86.150,205.187 84.634,199.688 85.942 M302.591 88.257 C 304.805 90.471,303.241 94.185,300.095 94.185 C 297.949 94.185,296.663 92.900,296.663 90.753 C 296.663 88.607,297.949 87.321,300.095 87.321 C 301.243 87.321,301.903 87.569,302.591 88.257 M206.396 88.541 C 209.012 89.325,210.068 93.062,208.759 96.906 C 207.378 100.957,199.116 100.991,197.739 96.950 C 195.524 90.451,199.589 86.502,206.396 88.541 M280.372 97.987 C 276.812 98.833,275.516 101.172,275.507 106.768 C 275.495 113.911,278.857 116.590,285.808 114.978 C 291.219 113.723,292.187 112.715,292.194 108.325 C 292.203 102.352,290.760 100.118,285.902 98.589 C 282.634 97.560,282.314 97.525,280.372 97.987 M284.953 100.717 C 290.284 103.415,291.684 110.571,287.227 112.341 C 282.264 114.311,278.334 113.152,277.562 109.490 C 276.091 102.519,279.804 98.111,284.953 100.717 M209.533 110.047 C 205.550 110.893,204.638 111.212,203.489 112.159 C 200.310 114.780,200.656 124.294,203.994 126.020 C 206.808 127.475,213.483 126.304,215.579 123.988 C 221.036 117.958,216.925 108.477,209.533 110.047 M259.398 112.444 C 258.400 113.442,257.515 115.723,256.822 119.081 C 255.969 123.220,259.004 127.741,262.636 127.741 C 267.581 127.741,269.885 121.522,267.360 114.986 C 265.907 111.226,261.896 109.945,259.398 112.444 M214.293 113.227 C 219.241 116.721,212.192 125.679,205.875 123.924 C 202.717 123.047,202.765 115.068,205.939 113.427 C 208.578 112.062,212.510 111.968,214.293 113.227 M265.005 115.233 C 267.772 119.783,266.448 125.453,262.620 125.453 C 259.146 125.453,257.679 119.994,259.980 115.634 C 261.148 113.421,263.775 113.211,265.005 115.233 M238.410 122.993 C 233.192 124.398,232.086 126.605,233.378 133.040 C 234.053 136.405,235.242 137.667,239.133 139.153 C 246.186 141.846,249.841 138.929,249.844 130.601 C 249.846 123.800,245.688 121.034,238.410 122.993 M246.218 125.529 C 248.181 127.368,248.166 134.542,246.196 136.689 C 242.397 140.826,234.014 133.827,235.621 127.860 C 236.444 124.805,243.735 123.201,246.218 125.529 M217.541 129.148 C 214.718 129.740,212.630 132.446,212.007 136.320 C 210.415 146.232,218.251 150.781,227.193 145.136 C 230.558 143.011,230.789 135.765,227.607 132.140 C 225.867 130.159,220.430 128.543,217.541 129.148 M222.503 131.975 C 227.655 134.697,229.504 142.116,225.426 143.702 C 217.954 146.608,214.475 144.925,214.502 138.418 C 214.528 132.177,217.839 129.511,222.503 131.975 M202.765 144.631 C 205.065 146.732,203.332 150.238,199.993 150.238 C 197.602 150.238,196.959 149.644,196.592 147.098 C 196.101 143.682,200.014 142.118,202.765 144.631 M252.044 145.949 C 252.031 147.355,251.437 147.719,250.569 146.851 C 249.459 145.741,249.557 145.281,250.906 145.281 C 251.743 145.281,252.048 145.460,252.044 145.949 M229.712 149.504 C 227.328 150.196,223.070 156.498,223.070 159.333 C 223.070 160.993,225.727 165.313,228.656 168.414 C 231.046 170.944,234.580 169.849,239.785 164.968 C 246.358 158.803,238.617 146.919,229.712 149.504 M235.962 154.434 C 241.305 158.186,241.050 160.439,234.760 165.041 C 231.228 167.625,226.501 164.464,226.501 159.518 C 226.501 156.489,228.822 153.033,231.011 152.802 C 231.781 152.721,232.599 152.626,232.829 152.590 C 233.058 152.555,234.468 153.385,235.962 154.434 M181.599 155.821 C 187.431 156.785,185.915 163.022,179.854 163.002 C 171.163 162.973,170.927 156.136,179.600 155.619 C 179.914 155.600,180.814 155.691,181.599 155.821 M157.293 166.216 C 150.408 167.680,149.662 174.701,156.149 176.987 C 160.905 178.663,166.357 177.702,167.202 175.039 C 167.338 174.611,167.609 174.261,167.805 174.261 C 168.000 174.261,168.160 173.295,168.160 172.114 C 168.160 167.605,163.262 164.947,157.293 166.216 M165.014 169.395 C 166.135 170.446,166.193 173.250,165.123 174.643 C 163.001 177.404,154.814 175.250,154.814 171.929 C 154.814 168.702,162.293 166.844,165.014 169.395 M240.726 173.618 C 237.948 175.519,237.185 180.205,238.882 184.933 C 240.827 190.352,246.875 190.352,248.821 184.933 C 251.705 176.897,246.521 169.651,240.726 173.618 M246.557 175.828 C 248.890 178.409,246.866 186.082,243.851 186.082 C 241.445 186.082,240.445 184.227,240.430 179.736 C 240.417 175.756,240.948 175.024,243.851 175.024 C 245.380 175.024,245.996 175.207,246.557 175.828 M139.988 186.889 C 135.433 191.444,141.188 198.969,146.647 195.596 C 151.614 192.526,149.625 185.319,143.811 185.319 C 141.680 185.319,141.473 185.404,139.988 186.889 M146.305 188.055 C 147.410 189.093,147.560 192.283,146.557 193.392 C 144.610 195.543,140.324 193.736,140.324 190.765 C 140.324 187.582,144.020 185.908,146.305 188.055 M253.003 192.433 C 246.211 193.433,242.343 200.883,245.785 206.335 C 248.421 210.510,258.673 210.283,261.219 205.993 C 263.539 202.085,261.009 192.577,257.645 192.560 C 257.189 192.558,256.215 192.490,255.481 192.410 C 254.747 192.330,253.632 192.340,253.003 192.433 M256.920 195.047 C 259.907 195.648,261.194 203.637,258.667 205.899 C 255.283 208.928,247.453 207.238,246.870 203.354 C 246.302 199.566,251.724 193.836,255.100 194.656 C 255.415 194.733,256.234 194.908,256.920 195.047 M128.371 204.754 C 123.730 207.724,125.861 215.062,131.363 215.062 C 134.459 215.062,136.892 212.631,136.892 209.537 C 136.892 205.239,131.949 202.464,128.371 204.754 M133.722 206.739 C 136.047 208.924,134.584 212.774,131.429 212.774 C 128.840 212.774,128.122 212.083,128.122 209.594 C 128.122 206.206,131.384 204.543,133.722 206.739 M255.672 217.299 C 252.456 218.142,251.610 219.553,251.412 224.402 C 251.120 231.526,252.637 233.174,259.485 233.174 C 266.333 233.174,267.850 231.526,267.559 224.402 C 267.319 218.548,266.084 217.316,260.250 217.116 C 258.361 217.052,256.301 217.134,255.672 217.299 M263.082 219.788 C 266.318 220.957,266.258 228.894,263.002 230.440 C 258.038 232.795,253.536 230.229,253.604 225.084 C 253.664 220.501,254.873 219.314,259.485 219.314 C 260.744 219.314,262.362 219.527,263.082 219.788 M120.533 223.639 C 112.587 226.262,111.383 237.838,118.896 239.389 C 124.979 240.646,128.654 239.061,130.036 234.586 C 132.673 226.050,128.342 221.061,120.533 223.639 M127.463 226.054 C 130.006 228.597,128.439 235.743,125.120 236.737 C 117.750 238.945,114.278 234.586,118.414 228.320 C 120.386 225.333,125.469 224.060,127.463 226.054 M255.714 242.357 C 252.458 243.244,251.287 245.303,251.287 250.143 C 251.287 255.129,252.436 257.034,256.005 257.963 C 261.715 259.451,266.455 257.739,267.280 253.891 C 269.271 244.612,264.585 239.939,255.714 242.357 M262.693 244.730 C 264.680 245.494,265.338 246.839,265.338 250.143 C 265.338 254.419,263.615 256.203,259.485 256.203 C 255.356 256.203,253.633 254.419,253.633 250.143 C 253.633 245.867,255.356 244.083,259.485 244.083 C 260.324 244.083,261.768 244.374,262.693 244.730 M117.771 248.686 C 111.933 250.241,112.320 262.839,118.249 264.262 C 127.461 266.472,132.601 260.861,129.577 251.895 C 128.519 248.757,123.066 247.275,117.771 248.686 M125.402 251.047 C 129.082 252.379,128.861 260.212,125.102 261.717 C 118.657 264.295,113.823 259.049,116.741 252.644 C 117.630 250.694,122.131 249.863,125.402 251.047 M252.476 268.110 C 247.921 272.665,253.676 280.189,259.135 276.816 C 264.141 273.722,262.060 266.540,256.158 266.540 C 254.192 266.540,253.937 266.648,252.476 268.110 M258.793 269.275 C 259.898 270.313,260.049 273.503,259.045 274.612 C 257.098 276.763,252.812 274.956,252.812 271.985 C 252.812 268.803,256.508 267.128,258.793 269.275 M118.423 273.537 C 112.891 274.916,112.777 281.633,118.264 282.949 C 122.336 283.927,127.657 282.939,129.052 280.947 C 132.367 276.214,125.866 271.681,118.423 273.537 M125.064 275.923 C 127.385 276.852,127.424 279.898,125.123 280.588 C 120.806 281.881,117.064 280.782,117.064 278.221 C 117.064 275.648,121.321 274.425,125.064 275.923 M240.750 287.417 C 237.787 290.139,236.957 297.885,239.377 300.227 C 241.658 302.433,242.242 302.765,243.851 302.765 C 247.581 302.765,250.091 299.129,249.658 294.354 C 249.186 289.147,247.165 286.368,243.851 286.368 C 242.244 286.368,241.686 286.557,240.750 287.417 M246.407 290.658 C 248.677 294.958,247.241 300.477,243.851 300.477 C 241.232 300.477,240.417 299.266,240.430 295.392 C 240.445 290.892,241.443 289.037,243.851 289.037 C 245.463 289.037,245.596 289.121,246.407 290.658 M122.485 293.064 C 119.514 295.145,119.246 304.375,122.088 306.766 C 124.082 308.444,128.145 307.860,129.142 305.752 C 130.754 302.345,130.770 298.696,129.192 294.644 C 128.415 292.646,124.424 291.706,122.485 293.064 M127.168 296.659 C 127.305 297.286,127.576 297.897,127.770 298.016 C 128.383 298.395,128.151 301.490,127.373 303.305 C 125.723 307.153,122.402 305.237,122.402 300.438 C 122.402 296.606,122.998 295.520,125.102 295.520 C 126.808 295.520,126.933 295.588,127.168 296.659 M228.114 306.167 C 225.737 308.545,224.773 315.793,226.470 318.538 C 229.884 324.062,237.178 321.292,237.178 314.473 C 237.178 307.014,232.007 302.275,228.114 306.167 M233.517 308.580 C 236.543 313.292,235.313 319.161,231.299 319.161 C 227.739 319.161,226.444 314.404,228.678 309.533 C 229.677 307.356,232.388 306.822,233.517 308.580 M129.457 316.663 C 122.686 320.222,125.734 328.426,133.605 327.828 C 139.474 327.382,141.816 325.710,141.837 321.953 C 141.860 317.680,133.951 314.301,129.457 316.663 M137.560 319.490 C 142.174 321.855,136.477 327.263,131.059 325.661 C 127.398 324.578,126.725 319.994,130.029 318.646 C 131.278 318.136,135.937 318.658,137.560 319.490 M209.954 323.326 C 206.254 325.765,205.876 329.511,209.050 332.287 C 211.980 334.850,214.808 334.490,217.376 331.226 C 220.693 327.008,214.450 320.362,209.954 323.326 M215.372 326.009 C 217.222 328.512,215.678 331.745,212.632 331.745 C 209.722 331.745,208.235 328.450,209.958 325.821 C 210.934 324.331,214.215 324.445,215.372 326.009 " stroke="none" fill="#449cac" fill-rule="evenodd"></path></g></svg>