<svg id="svg" version="1.1" xmlns="http://www.w3.org/2000/svg" xmlns:xlink="http://www.w3.org/1999/xlink" width="400" height="429.31034482758616" viewBox="0, 0, 400,429.31034482758616"><g id="svgg"><path id="path0" d="M175.862 40.687 L 175.862 46.897 180.690 46.897 L 185.517 46.897 185.517 92.241 L 185.517 137.586 176.379 137.586 L 167.241 137.586 167.241 103.103 L 167.241 68.621 171.552 68.621 L 175.862 68.621 175.862 62.586 L 175.862 56.552 154.655 56.552 L 133.448 56.552 133.448 62.576 L 133.448 68.601 138.190 68.697 L 142.931 68.793 143.103 108.647 L 143.276 148.500 150.862 156.314 L 158.448 164.128 171.983 164.133 L 185.517 164.138 185.517 173.276 L 185.517 182.414 180.690 182.414 L 175.862 182.414 175.862 190.345 L 175.862 198.276 198.455 198.276 L 221.047 198.276 220.955 190.431 L 220.862 182.586 216.121 182.490 L 211.379 182.394 211.379 173.266 L 211.379 164.138 224.787 164.138 L 238.194 164.138 245.820 156.251 L 253.445 148.364 253.533 108.578 L 253.621 68.793 258.362 68.697 L 263.103 68.601 263.103 62.576 L 263.103 56.552 241.897 56.552 L 220.690 56.552 220.690 62.586 L 220.690 68.621 225.000 68.621 L 229.310 68.621 229.310 103.103 L 229.310 137.586 220.345 137.586 L 211.379 137.586 211.379 92.241 L 211.379 46.897 216.215 46.897 L 221.050 46.897 220.956 40.776 L 220.862 34.655 198.362 34.566 L 175.862 34.478 175.862 40.687 " stroke="none" fill="#fbfafa" fill-rule="evenodd"></path><path id="path1" d="M0.345 356.897 L 0.345 426.897 11.724 426.897 L 23.103 426.897 23.103 356.897 L 23.103 286.897 11.724 286.897 L 0.345 286.897 0.345 356.897 M46.552 336.220 C 46.552 367.861,46.680 386.745,46.909 388.893 C 49.817 416.152,64.463 429.096,92.414 429.110 C 117.197 429.122,131.443 418.555,136.327 396.538 C 137.905 389.421,137.931 388.454,137.931 336.393 L 137.931 286.897 127.258 286.897 L 116.584 286.897 116.449 336.121 C 116.304 388.491,116.351 386.998,114.671 393.448 C 111.721 404.779,102.502 410.417,89.301 408.964 C 79.409 407.876,73.237 402.685,70.850 393.448 C 69.144 386.844,69.210 388.970,69.068 336.293 L 68.935 286.897 57.743 286.897 L 46.552 286.897 46.552 336.220 M160.690 356.897 L 160.690 426.897 171.724 426.897 L 182.759 426.897 182.759 400.726 L 182.759 374.556 195.948 374.382 C 215.307 374.126,222.410 372.483,231.629 366.126 C 252.691 351.604,252.644 309.038,231.552 294.926 C 221.161 287.974,214.450 286.899,181.466 286.897 L 160.690 286.897 160.690 356.897 M260.771 338.190 L 260.873 389.483 261.668 393.793 C 266.119 417.931,280.310 429.097,306.552 429.110 C 331.369 429.122,345.574 418.585,350.465 396.538 C 352.043 389.421,352.069 388.454,352.069 336.393 L 352.069 286.897 341.396 286.897 L 330.722 286.897 330.593 336.293 C 330.467 384.286,330.444 385.793,329.761 389.310 C 327.075 403.161,320.514 408.962,307.414 409.066 C 295.585 409.161,288.839 404.796,285.525 394.905 C 283.265 388.161,283.353 390.374,283.206 336.121 L 283.073 286.897 271.871 286.897 L 260.670 286.897 260.771 338.190 M375.517 356.897 L 375.517 426.897 386.897 426.897 L 398.276 426.897 398.276 356.897 L 398.276 286.897 386.897 286.897 L 375.517 286.897 375.517 356.897 M205.172 307.940 C 219.797 309.223,225.378 315.621,225.318 331.034 C 225.265 344.632,221.218 350.981,210.757 353.876 C 208.323 354.549,207.056 354.621,195.431 354.745 L 182.759 354.880 182.759 331.233 L 182.759 307.586 191.983 307.589 C 197.056 307.591,202.991 307.749,205.172 307.940 " stroke="none" fill="#040404" fill-rule="evenodd"></path><path id="path2" d="M98.966 116.897 L 98.966 233.793 198.448 233.793 L 297.931 233.793 297.931 116.897 L 297.931 0.000 198.448 0.000 L 98.966 0.000 98.966 116.897 M221.034 40.862 L 221.034 47.241 216.207 47.241 L 211.379 47.241 211.379 92.241 L 211.379 137.241 220.345 137.241 L 229.310 137.241 229.310 103.103 L 229.310 68.966 225.000 68.966 L 220.690 68.966 220.690 62.586 L 220.690 56.207 242.069 56.207 L 263.448 56.207 263.448 62.586 L 263.448 68.966 258.621 68.966 L 253.793 68.966 253.779 108.707 L 253.764 148.448 245.880 156.466 L 237.995 164.483 224.687 164.483 L 211.379 164.483 211.379 173.448 L 211.379 182.414 216.207 182.414 L 221.034 182.414 221.034 190.517 L 221.034 198.621 198.448 198.621 L 175.862 198.621 175.862 190.517 L 175.862 182.414 180.517 182.414 L 185.172 182.414 185.172 173.448 L 185.172 164.483 171.985 164.483 L 158.798 164.483 150.779 156.468 L 142.759 148.454 142.759 108.719 L 142.759 68.985 138.017 68.889 L 133.276 68.793 133.276 62.586 L 133.276 56.379 154.569 56.290 L 175.862 56.202 175.862 62.584 L 175.862 68.966 171.724 68.966 L 167.586 68.966 167.586 103.103 L 167.586 137.241 176.379 137.241 L 185.172 137.241 185.172 92.241 L 185.172 47.241 180.517 47.241 L 175.862 47.241 175.862 40.862 L 175.862 34.483 198.448 34.483 L 221.034 34.483 221.034 40.862 " stroke="none" fill="#9c0404" fill-rule="evenodd"></path><path id="path3" d="M180.515 47.150 L 185.170 47.261 185.259 92.165 L 185.349 137.069 185.347 92.069 L 185.345 47.069 180.603 47.054 L 175.861 47.039 180.515 47.150 M213.707 47.153 C 215.082 47.218,217.332 47.218,218.707 47.153 C 220.082 47.087,218.957 47.034,216.207 47.034 C 213.457 47.034,212.332 47.087,213.707 47.153 M133.246 62.586 C 133.246 66.000,133.298 67.350,133.361 65.586 C 133.423 63.822,133.423 61.029,133.360 59.379 C 133.297 57.729,133.246 59.172,133.246 62.586 M167.407 103.103 C 167.407 121.974,167.449 129.694,167.500 120.259 C 167.551 110.823,167.551 95.384,167.500 85.948 C 167.449 76.513,167.407 84.233,167.407 103.103 M144.124 149.741 C 144.969 150.642,145.706 151.379,145.761 151.379 C 146.020 151.379,145.747 151.070,144.224 149.641 L 142.586 148.103 144.124 149.741 M239.815 162.500 L 238.103 164.310 239.914 162.599 C 241.596 161.009,241.882 160.690,241.625 160.690 C 241.570 160.690,240.756 161.504,239.815 162.500 M171.805 164.394 L 185.161 164.491 185.261 173.366 L 185.362 182.241 185.353 173.276 L 185.345 164.310 171.897 164.304 L 158.448 164.298 171.805 164.394 M217.822 164.396 C 221.460 164.452,227.512 164.452,231.270 164.396 C 235.029 164.340,232.052 164.295,224.655 164.295 C 217.259 164.295,214.184 164.340,217.822 164.396 " stroke="none" fill="#b44444" fill-rule="evenodd"></path><path id="path4" d="M144.077 56.465 C 150.017 56.518,159.638 56.518,165.456 56.465 C 171.274 56.412,166.414 56.369,154.655 56.369 C 142.897 56.369,138.136 56.412,144.077 56.465 M241.810 56.464 L 263.103 56.557 263.103 62.579 L 263.103 68.601 258.362 68.697 L 253.621 68.793 253.619 108.534 L 253.616 148.276 253.706 108.630 L 253.796 68.985 258.536 68.889 L 263.276 68.793 263.276 62.586 L 263.276 56.379 241.897 56.375 L 220.517 56.371 241.810 56.464 M138.102 68.874 L 142.756 68.985 142.846 108.630 L 142.935 148.276 142.933 108.534 L 142.931 68.793 138.189 68.778 L 133.447 68.763 138.102 68.874 M169.411 68.877 C 170.699 68.943,172.716 68.943,173.894 68.876 C 175.071 68.808,174.017 68.754,171.552 68.755 C 169.086 68.755,168.123 68.810,169.411 68.877 M222.859 68.877 C 224.147 68.943,226.164 68.943,227.342 68.876 C 228.519 68.808,227.466 68.754,225.000 68.755 C 222.534 68.755,221.571 68.810,222.859 68.877 M171.831 137.499 C 174.450 137.558,178.640 137.558,181.141 137.499 C 183.643 137.440,181.500 137.392,176.379 137.392 C 171.259 137.393,169.212 137.441,171.831 137.499 M215.776 137.499 C 218.289 137.558,222.401 137.558,224.914 137.499 C 227.427 137.440,225.371 137.392,220.345 137.392 C 215.319 137.392,213.263 137.440,215.776 137.499 M249.477 152.500 L 245.690 156.379 249.569 152.592 C 253.172 149.074,253.605 148.621,253.356 148.621 C 253.306 148.621,251.560 150.366,249.477 152.500 M149.828 155.517 C 152.098 157.793,154.032 159.655,154.127 159.655 C 154.222 159.655,152.442 157.793,150.172 155.517 C 147.902 153.241,145.968 151.379,145.873 151.379 C 145.778 151.379,147.558 153.241,149.828 155.517 M187.180 198.534 C 193.500 198.587,203.741 198.587,209.939 198.534 C 216.136 198.482,210.966 198.439,198.448 198.439 C 185.931 198.439,180.860 198.482,187.180 198.534 " stroke="none" fill="#bc6464" fill-rule="evenodd"></path></g></svg>