<?xml version="1.0" encoding="utf-8"?>
<!-- Generator: Adobe Illustrator 19.2.1, SVG Export Plug-In . SVG Version: 6.00 Build 0)  -->
<svg version="1.1" id="layer" xmlns="http://www.w3.org/2000/svg" xmlns:xlink="http://www.w3.org/1999/xlink" x="0px" y="0px"
	 viewBox="0 0 652 652" style="enable-background:new 0 0 652 652;" xml:space="preserve">
<style type="text/css">
	.st0{fill:#52840E;}
	.st1{fill:#FFFFFF;}
</style>
<path d="M71.5,70.6h500v499.9h-500V70.6z"/>
<path d="M71.5,70.5h500v499.9h-500V70.5z"/>
<path d="M71.5,70.5h500v499.9h-500V70.5z"/>
<path d="M71.5,70.5h500v499.9h-500V70.5z"/>
<path d="M71.5,70.5h500v499.9h-500V70.5z"/>
<path class="st0" d="M71.5,70.5h500v499.9h-500V70.5z"/>
<path class="st1" d="M258.4,202.3h-11.3v-8.2h32.8v8.2h-11.4v33.4h-10.2V202.3z M301.1,219.3v-25.3h10.2v24.6c0,6.6,2.2,9.6,8.4,9.6
	c6.2,0,8-3.4,8-9.2v-25h9.5v24.3c0,11.8-5.9,18.1-17.4,18.1c-12.2,0-18.3-5.8-18.3-17.1 M389.1,223.9c-1.3-2.4-3-4.5-5.1-6.2
	c5.5-1,9.4-5.9,9.1-11.4c0-8-5.7-12.2-16-12.2h-14.7v41.6h10.2v-16.4h0.6c1.7,0,2.4,0.4,5.1,4.6l7.4,12h11L389.1,223.9z
	 M377.1,212.2h-4.6v-10.5h4c4.6,0,6.6,1.8,6.6,5.3S381.1,212.2,377.1,212.2z M440.1,194.1h-9.7l-16,41.6h10.2l2.4-7h16l2.4,7h11
	L440.1,194.1z M429.8,220.7l3-8.6c1.2-3.4,1.9-6.5,2.2-7.2c0.2,0.7,0.8,3.7,2.1,7.2l3.1,8.6H429.8z M479.5,194.1h10.2v33.6h18.4v8
	h-28.6V194.1z M134.9,269.1H145V285h17v-15.9h10v41.6h-10v-17.4h-17v17.4h-10.1C134.9,310.7,134.9,269.1,134.9,269.1z M205.8,269.1
	H216v41.6h-10.2V269.1z M245.3,307.4l4-7c2.5,1.9,5.6,2.9,8.7,3c4,0,6-1.8,6-4c0-3.2-4.3-4-9.2-6.4c-5.3-1.9-8.9-7-8.7-12.6
	c0-7.2,6.1-12,13.9-12c4.5-0.3,8.9,1,12.6,3.6l-4,7c-2.4-1.5-5.2-2.4-8-2.5c-3.2,0-5,1.2-5,3.8c0,2.5,3.3,3.8,7.7,5.8
	c5.5,2.4,10.3,5.2,10.3,12.8s-5.8,12.8-15.4,12.8c-4.7,0.2-9.4-1.2-13.2-4 M309.4,277.3h-11.4v-8.2h32.8v8.2h-11.4v33.4h-10.1
	C309.4,310.7,309.4,277.3,309.4,277.3z M351.9,289.9c-0.5-11.5,8.5-21.2,20-21.6c0.6,0,1.3,0,1.9,0c11.9-0.1,21.6,9.5,21.7,21.4
	c0.1,11.9-9.5,21.6-21.4,21.7c-11.5,0.6-21.4-8.2-22.1-19.7C351.9,291.1,351.9,290.5,351.9,289.9 M384.9,289.9
	c0-7.2-3.1-13.6-10.9-13.6s-11.4,6.1-11.4,13.3s3.4,13.8,11.1,13.8s11.3-6.3,11.3-13.5 M419.3,269.1h14.8c10.1,0,16,4.2,16,12.2
	c0.2,5.5-3.7,10.3-9.1,11.3c2.1,1.7,3.8,3.8,5.1,6.2l7.4,11.8h-11.1l-7.4-12c-2.7-4.2-3.4-4.6-5.1-4.6h-0.5v16.4h-10.1L419.3,269.1z
	 M433.8,287.3c4,0,6.2-1.9,6.2-5.3s-2-5.3-6.6-5.3h-4v10.6L433.8,287.3z M487.3,295l-13.8-25.9h11.2l8.1,16.5h0l8-16.5h9.8
	L497.5,295v15.7h-10.1C487.3,310.7,487.3,295,487.3,295z M134.9,194.1h10.2l13.5,19.4c2.7,4,4.2,6.8,4.6,7.3c0-0.4-0.2-3.6-0.2-6.8
	v-20h9.1v41.6h-9.2l-14.8-21c-2.6-3.6-3.8-5.9-4.2-6.5c0,0.4,0.2,3,0.2,5.8v21.7h-9.2V194.1z M208.1,194.1h9.7l16.4,41.6h-11l-2.4-7
	h-16l-2.4,7h-10.1L208.1,194.1z M217.9,220.7l-3-8.6c-0.8-2.4-1.5-4.8-2.1-7.2c-0.3,0.8-0.9,4-2.1,7.2l-3,8.6H217.9z M138,344.1h9.8
	l7.8,24.8c0.9,2.9,1.7,6.2,2,7c0.3-0.8,1.1-4,2-7l8-24.8h9.8l5.9,41.6h-10.2l-2.3-19.6c-0.4-3.1-0.7-5.5-0.7-6.1
	c-0.2,0.7-0.8,3.2-1.7,6l-6.3,19.8h-10l-6.1-19.8c-0.7-2.6-1.4-5.4-1.6-6c0,0.7-0.2,3.4-0.5,6.2l-2.6,19.6h-9.1L138,344.1z
	 M211.6,369.4v-25.3h10.1v24.6c0,6.6,2.2,9.6,8.4,9.6s8-3.4,8-9.2v-25h9.3v24.3c0,11.8-6,18-17.4,18
	C217.7,386.5,211.6,380.7,211.6,369.4 M276.5,382.4l4-7c2.6,1.9,5.6,2.9,8.8,3c4,0,6-1.8,6-4c0-3.2-4.3-4-9.2-6.4
	c-5.3-1.9-8.8-7-8.7-12.6c0-7.2,6.1-12,13.9-12c4.5-0.2,8.9,1,12.6,3.6l-4,7c-2.4-1.5-5.2-2.3-8-2.5c-3.2,0-5,1.2-5,3.8
	s3.3,3.7,7.7,5.7c5.7,2.4,10.5,5.2,10.5,12.8s-5.8,12.7-15.4,12.7C285,386.6,280.3,385.2,276.5,382.4 M336.3,344.1h24.9v8.2h-14.9
	v8.1h13.1v7.8h-13.1v9.3h15.3v8.2h-25.3C336.3,385.7,336.3,344.1,336.3,344.1z M393.1,369.4v-25.3h10.1v24.6c0,6.6,2.2,9.6,8.4,9.6
	s8-3.4,8-9.2v-25h9.5v24.3c0,11.8-5.9,18-17.4,18c-12.2,0-18.3-5.8-18.3-17 M462.8,344.1h9.8l8,24.8c0.9,2.9,1.7,6.2,1.9,7
	c0.2-0.8,1.1-4,2-7l8-24.8h9.8l5.7,41.6h-10.3l-2.3-19.6c-0.4-3.1-0.7-5.5-0.7-6.1c-0.2,0.7-0.8,3.2-1.7,6l-6.2,19.8h-9.8l-6.1-19.8
	c-0.8-2.6-1.4-5.4-1.6-6c0,0.7,0,3.4-0.5,6.2l-2.8,19.6h-9L462.8,344.1z M162.1,421.2c-6.1,0-11.1,5-11.1,11.1
	c0,6.1,5,11.1,11.1,11.1s11.1-5,11.1-11.1C173.2,426.2,168.3,421.2,162.1,421.2z M162.1,439.3c-4,0-5.7-3.3-5.7-7.1s1.8-6.8,5.9-6.8
	s5.6,3.2,5.6,7S166.2,439.3,162.1,439.3z M177.3,441.3l2.1-3.6c1.3,1,2.9,1.5,4.5,1.6c2,0,3.1-0.9,3.1-2.1s-2.2-2-4.7-3.3
	c-2.8-0.9-4.6-3.6-4.5-6.5c0.1-3.5,3.1-6.3,6.7-6.1c0.2,0,0.4,0,0.6,0.1c2.3-0.1,4.6,0.5,6.5,1.8l-2,3.6c-1.2-0.8-2.6-1.2-4-1.3
	c-1.6,0-2.6,0.6-2.6,1.9s1.7,2,4,3s5.3,2.7,5.3,6.6s-3,6.5-8,6.5c-2.4,0.1-4.8-0.6-6.8-2.1 M218.9,421.4h-5l-8,21.4h5.2l1.2-3.6h8
	l1.3,3.6h5.6L218.9,421.4z M213.6,435.1l1.5-4.4c0.6-1.8,1-3.4,1.1-3.7c0,0.4,0.4,1.9,1.1,3.7l1.6,4.4H213.6z M231.9,421.4h5.2
	l6.9,9.9c1.4,2,2.2,3.5,2.4,3.8c-0.1-1.2-0.1-2.3,0-3.5v-10.2h4.7v21.4h-4.7l-7.6-10.8c-1.3-1.8-2-3-2.2-3.3v14.2h-4.6L231.9,421.4z
	 M257.1,432.1c0-6.1,5-11.1,11.1-11.1c0.3,0,0.6,0,0.9,0c2.5-0.2,5,0.5,7.2,1.9l-2.2,4c-1.4-1-3.1-1.6-4.9-1.6
	c-3.3-0.2-6.1,2.2-6.4,5.5c0,0.4,0,0.8,0,1.1c0,4,1.8,7,6,7c1.1,0.1,2.3-0.2,3.3-0.6v-3.7h-3.7v-4h8.8v10.5c-2.5,1.4-5.3,2.1-8.2,2
	c-5.9,0.6-11.2-3.8-11.8-9.7C257.1,432.9,257.1,432.5,257.1,432.1 M284.5,421.4h12.8v4.2h-7.6v4.2h6.8v4h-6.8v4.8h7.9v4.3h-13
	C284.5,442.8,284.5,421.4,284.5,421.4z M304.7,421.4h5.2v17.2h7.8v4.2h-13C304.7,442.8,304.7,421.4,304.7,421.4z M323.6,421.4h12.8
	v4.2h-7.7v4.2h6.8v4h-6.8v4.8h7.9v4.3h-13L323.6,421.4L323.6,421.4z M341.5,441.1l2.1-3.6c1.3,0.9,2.9,1.5,4.5,1.5
	c2,0,3.1-0.9,3.1-2.1s-2-2-4.7-3.2c-2.8-1-4.6-3.6-4.5-6.5c0.1-3.6,3.1-6.3,6.7-6.2c0.2,0,0.3,0,0.5,0c2.3-0.1,4.6,0.5,6.4,1.8
	l-2,3.6c-1.2-0.8-2.6-1.2-4-1.3c-1.6,0-2.6,0.6-2.6,1.9s1.7,1.9,4,3s5.3,2.7,5.3,6.6s-3,6.6-8,6.6
	C345.8,443.3,343.4,442.5,341.5,441.1 M370.9,432.1c-0.3-5.8,4.3-10.8,10.1-11c0.4,0,0.7,0,1.1,0c2.3-0.1,4.6,0.5,6.6,1.7l-2.3,3.8
	c-1.3-0.8-2.8-1.2-4.4-1.2c-3.6,0-5.6,2.9-5.6,6.6s1.9,6.9,5.7,6.9c1.7,0,3.4-0.5,4.7-1.6l2.1,3.6c-2,1.5-4.4,2.3-6.9,2.3
	c-5.8,0.4-10.8-4-11.2-9.8C370.8,432.9,370.8,432.5,370.9,432.1 M392.5,432.1c-0.3-5.9,4.3-10.9,10.2-11.1c0.3,0,0.7,0,1,0
	c6.1,0,11.1,5,11.1,11.1c0,6.1-5,11.1-11.1,11.1c-5.9,0.3-11-4.2-11.3-10.1c0-0.3,0-0.6,0-0.9 M409.3,432.1c0-3.7-1.6-7-5.6-7
	s-5.8,3.1-5.8,6.8s1.7,7,5.7,7S409.3,435.8,409.3,432.1 M420,434.4v-13h5.1V434c0,3.4,1.1,5,4.3,5s4-1.8,4-4.7v-12.8h4.7v12.5
	c0.7,4.4-2.2,8.5-6.5,9.2c-0.8,0.1-1.6,0.2-2.4,0c-6.3,0-9.4-3-9.4-8.8 M444.8,421.4h5.2l7,9.9c1.4,2,2.2,3.5,2.3,3.8s0-1.8,0-3.5
	v-10.2h4.7v21.4h-4.8l-7.6-10.8c-0.8-1.1-1.5-2.2-2.2-3.3v14.2h-4.6L444.8,421.4z M475.4,425.6h-5.8v-4.2h16.9v4.2h-5.8v17.2h-5.2
	V425.6z M497.2,434.7l-7-13.3h5.8l4.1,8.5h0l4.1-8.5h5l-6.8,13.3v8h-5.2V434.7z M134.9,421.4h5.2v17.2h7.8v4.2h-13V421.4z"/>
</svg>
