<?xml version="1.0" encoding="utf-8"?>
<!-- Generator: Adobe Illustrator 25.2.1, SVG Export Plug-In . SVG Version: 6.00 Build 0)  -->
<svg version="1.1" id="Layer_1" xmlns="http://www.w3.org/2000/svg" xmlns:xlink="http://www.w3.org/1999/xlink" x="0px" y="0px"
	 viewBox="0 0 316.3 126.3" style="enable-background:new 0 0 316.3 126.3;" xml:space="preserve">
<style type="text/css">
	.st0{fill:#003A70;}
</style>
<path class="st0" d="M35.5,49.8c-2.9,0-3.8,0.4-3.8,2.7v18.8c0,0.9,0.3,6.8,1.3,7.9c1.2,1.3,4.5,2,7.9,2c8,0,13.9-5.5,13.9-14.6
	C54.7,57.2,47,49.8,35.5,49.8 M39,20.5c-6.9,0-7.2,0.9-7.2,3v22.8c0,1.7,1.4,1.5,3.9,1.5c6.4,0,10.8,0.6,10.8,0.6
	c3-2.3,6.5-4.3,6.5-12.6C53,30.6,48.6,20.5,39,20.5 M40.4,83.1c-4.4,0-8.8-1-13.4-1c-4.4,0-6.7,0.4-10.1,0.4c-1.1,0-1.8-0.1-1.8-1.2
	c0-1.1,0.6-1.3,2.9-1.3c4.7,0,4.9-0.2,4.9-1.8V30c0-8.3-1.7-9.2-4.6-9.2c-4.7,0-5.1-0.1-5.1-1.4c0-0.7,0.3-0.8,2.1-0.8
	c3.3,0,6.5,0.1,10.2,0.1c2.2,0,7.2-0.6,16.7-0.6c13.7,0,19.5,7,19.5,14.5c0,7.5-4.5,11.1-7.9,13.4c-2,1.4-4.3,2.5-4.3,2.8
	c0,0.2,2,0.7,4.1,1.8c4.9,2.5,11.1,6.1,11.1,15.2C64.7,77.6,55,83.1,40.4,83.1"/>
<path class="st0" d="M84.1,46.1c-6.9,0-9.1,10.4-9.1,11.7c0,0.5,0,0.5,1.1,0.5c4.8,0,9.7-1.2,16.5-2.3c1-0.2,1.1-0.4,1.1-0.9
	C93.7,52.9,88.3,46.1,84.1,46.1 M98.2,57.1c-2.4,0.5-11.5,2.6-21.9,3.2c-1.5,0.1-1.7,0.5-1.7,2.6c0,12.6,9.8,16,16.7,16
	c6,0,9.3-2.2,9.9-2.2c0.5,0,0.7,0.5,0.7,0.7c0,0.5-7.8,6.2-15.2,6.2c-7.5,0-18.6-3.7-18.6-18.9c0-12.9,8.7-20.6,17-20.6
	c4.8,0,10.6,3,13.9,6.9c1.6,1.8,3,4,3,4.7C102,56.1,100.7,56.5,98.2,57.1"/>
<path class="st0" d="M131.6,54.6c-1.3,0-2.4-3.7-6.9-3.7c-5.3,0-7.3,2.2-7.3,6v18.8c0,4.5,0.3,4.5,7,4.5c2.4,0,2.5,0.3,2.5,1.1
	c0,1-0.1,0.9-2.5,0.9c-1.3,0-7.4-0.5-10.3-0.5c-3.1,0-6.2,0.5-7.5,0.5c-2.1,0-2.3,0-2.3-0.9s0.1-1.1,2.3-1.1c3.7,0,4-0.1,4-1.4v-25
	c0-6.2,0.2-6.4-4.9-6.4c-1.6,0-1.6,0.1-1.6-0.9c0-1.1-0.1-1.4,1.5-1.4c3.1,0,4.8,0.2,6.7,0.2c1.5,0,3.2-0.5,4.7-0.5
	c0.4,0,0.7,0.3,0.7,1c0,0.5-0.2,2.5-0.2,2.7c0,0.8,0.1,1.5,0.5,1.5c1.4,0,5.7-4.8,10-4.8c1.6,0,5.8,2,5.8,4.4
	C133.6,50.6,132.2,54.6,131.6,54.6"/>
<path class="st0" d="M174.8,82.5c-1.1,0-2.3-0.1-3.1-0.1c-1.1,0-3.8,0.1-5.1,0.1c-1.6,0-2.5-2.3-6.3-6.7c-3.8-4.4-7.7-10.1-8.2-10.1
	c-0.4,0-1.6,0.9-3.2,1.9c-1.5,0.9-2.7,1.6-2.7,2.4v5.8c0,4.3-0.2,4.3,5.5,4.3c2.1,0,2.5,0.5,2.5,1.2c0,0.9-0.5,0.9-2.5,0.9
	c-1.4,0-5.6-0.2-8.5-0.2c-3.1,0-6.5,0.2-7.8,0.2c-2.1,0-2.6-0.1-2.6-0.9c0-0.7,0.5-1.2,2.6-1.2c3.1,0,3.9,0,3.9-1.4
	c0-2.6,0.3-29.7,0.3-49c0-6.5-0.7-7.3-3.2-7.3c-3.7,0-4.1-0.3-4.1-0.9c0-0.9,0.2-1.3,1.2-1.3c6.6,0,12-2,12.8-2
	c0.5,0,0.6,0.3,0.6,0.8c0,1.2-0.2,5-0.2,7.9c0,13.9-0.5,24.1-0.5,39c0,0.4,0.1,0.6,0.4,0.6c2.3,0,11.8-8.4,14.7-11.1
	c3.6-3.4,4.4-4.9,4.4-6.8c0-1.5-0.3-1.6-4.3-1.6c-1.4,0-1.8-0.2-1.8-1c0-0.7,0.5-0.9,1.6-0.9c0.9,0,2.6,0.3,3.7,0.3
	c1.2,0,6.5-0.3,7.6-0.3c0.7,0,1.1,0.1,1.1,0.4c0,0.8-3.1,4.8-5.9,7.5c-4.6,4.5-10.2,8.5-10.2,9.1c0,0.8,1.6,2.6,8,10.2
	c3.1,3.7,6,8.2,9.1,8.2c2.2,0,2.9,0.5,2.9,1.2C177.5,82.4,176.9,82.5,174.8,82.5"/>
<path class="st0" d="M190.6,46.1c-6.9,0-9.1,10.4-9.1,11.7c0,0.5,0,0.5,1.1,0.5c4.7,0,9.7-1.2,16.5-2.3c1-0.2,1.1-0.4,1.1-0.9
	C200.2,52.9,194.9,46.1,190.6,46.1 M204.7,57.1c-2.4,0.5-11.5,2.6-21.9,3.2c-1.5,0.1-1.7,0.5-1.7,2.6c0,12.6,9.8,16,16.7,16
	c6,0,9.3-2.2,9.9-2.2c0.5,0,0.7,0.5,0.7,0.7c0,0.5-7.8,6.2-15.2,6.2c-7.5,0-18.6-3.7-18.6-18.9c0-12.9,8.7-20.6,17-20.6
	c4.8,0,10.6,3,13.9,6.9c1.6,1.8,3,4,3,4.7C208.5,56.1,207.2,56.5,204.7,57.1"/>
<path class="st0" d="M224.8,82.2c-1.4,0-3.4-0.2-5-0.2c-3.1,0-7.9,0.2-9.2,0.2c-2.1,0-2.3-0.2-2.3-0.9c0-0.6,0.1-1.2,2.3-1.2
	c3.7,0,5.3,0.1,5.3-1.6V28.2c0-5.8-0.5-5.8-4.7-5.8c-1.6,0-2.6-0.2-2.6-1.2c0-1.1,0.7-1,2.3-1.1c7.1-0.5,10.6-2,11.1-2
	c0.5,0,0.9,0.5,0.9,1.5c0,1.1-0.5,4.4-0.5,7.1c0,34.8-0.5,42-0.5,44.7c0,7.6,0.6,8.6,2.3,8.6c4.6,0,4.4,0.5,4.4,1.3
	C228.8,82.2,228.1,82.2,224.8,82.2"/>
<path class="st0" d="M243.3,46.1c-6.9,0-9.1,10.4-9.1,11.7c0,0.5,0,0.5,1.1,0.5c4.8,0,9.7-1.2,16.5-2.3c1-0.2,1.1-0.4,1.1-0.9
	C252.9,52.9,247.5,46.1,243.3,46.1 M257.4,57.1c-2.4,0.5-11.5,2.6-21.9,3.2c-1.5,0.1-1.7,0.5-1.7,2.6c0,12.6,9.8,16,16.7,16
	c6,0,9.3-2.2,9.9-2.2c0.5,0,0.7,0.5,0.7,0.7c0,0.5-7.8,6.2-15.2,6.2c-7.5,0-18.6-3.7-18.6-18.9c0-12.9,8.7-20.6,17-20.6
	c4.8,0,10.6,3,13.9,6.9c1.6,1.8,3,4,3,4.7C261.2,56.1,259.9,56.5,257.4,57.1"/>
<path class="st0" d="M298.8,47.3c-2,0-6,11-13.2,28.5c-5.8,14-9.9,21.4-12.8,27.4c-1,2-2.1,2.1-4.1,2.4c-2.7,0.4-3.4,1.1-5.4,1.1
	c-1.6,0-2.5-0.5-2.5-0.9c0-0.5,4.3-1.1,7.4-5c3.3-4.1,11.1-14.9,11.1-17.6c0-1-7.3-17.9-12.3-29.8c-2.3-5.5-2.9-5.9-4.6-5.9
	c-1.8,0-1.9-0.1-1.9-0.9c0-0.8,0.3-1.3,1.9-1.3c2.6,0,3.2,0.2,5.4,0.2c2.6,0,5.8-0.3,8.7-0.3c1.9,0,2.3,0.4,2.3,1.4
	c0,0.8-0.4,0.9-2.3,0.9c-2.2,0-2.7,0.5-2.7,2.6c0,2.6,2.4,5.8,7.9,19.9c0.7,1.9,1.8,3.5,2.2,3.5c0.6,0,1.2-1.3,2.6-5.6
	c2.2-6.6,5.5-16.1,5.5-17.4c0-2.7,0-3.3-3.1-3.3c-2.8,0-3.2,0-3.2-0.9c0-1.2,0.3-1.2,1.9-1.2c2.5,0,4.1,0.2,6.6,0.2
	c1.4,0,3.8-0.4,5.1-0.4c1.5,0,1.9,0.1,1.9,1.1C301.2,46.8,299.9,47.3,298.8,47.3"/>
<path class="st0" d="M25.6,105.3c-3,0-4.5-1.7-4.5-4.4v-8h2.1v8.1c0,1.5,0.6,2.5,2.4,2.5c1.7,0,2.4-1,2.4-2.5v-8.1h2.1v8
	C30.1,103.6,28.6,105.3,25.6,105.3"/>
<polygon class="st0" points="40.4,105.1 35.2,96.9 35.2,96.9 35.2,105.1 33.1,105.1 33.1,93.1 35.1,92.9 40.1,100.9 40.1,100.9 
	40.1,92.9 42.3,92.9 42.3,105.1 "/>
<rect x="45.3" y="92.9" class="st0" width="2.1" height="12.2"/>
<path class="st0" d="M56,105.1h-2.3l-4.2-12.2h2.2l2.3,6.8c0,0,0.2,0.7,0.8,2.8H55c0.6-2.1,0.8-2.8,0.8-2.8l2.3-6.8h2.1L56,105.1z"
	/>
<polygon class="st0" points="69.8,105.1 62.3,105.1 62.3,92.9 69.6,92.9 69.6,94.7 64.5,94.7 64.5,98.1 69,98.1 69,99.9 64.5,99.9 
	64.5,103.3 69.9,103.3 "/>
<path class="st0" d="M76.6,94.7h-1.7v3.7h1.8c1.3,0,1.9-0.7,1.9-1.9C78.5,95.4,78,94.7,76.6,94.7 M79.1,105.1l-1.7-3.4
	c-0.4-0.7-0.8-1.4-1.6-1.4h-1v4.9h-2.1V92.9h3.9c2.7,0,4,1.5,4,3.6c0,1.5-0.7,2.7-2.3,3.3v0c0.4,0.2,0.6,0.6,0.7,0.8l2.3,4.4H79.1z"
	/>
<path class="st0" d="M86.9,105.3c-1.7,0-3-0.7-4-1.4l0.9-1.6c1,0.7,2.2,1.1,3.1,1.1c1.4,0,2.1-0.8,2.1-1.7c0-2.3-5.4-1.6-5.4-5.7
	c0-2.2,1.8-3.5,4-3.5c1.3,0,2.5,0.4,3.5,1.1l-0.8,1.5c-0.9-0.5-1.7-0.8-2.8-0.8c-1.2,0-1.8,0.7-1.8,1.6c0,2.8,5.4,1.5,5.4,5.7
	C91.2,103.8,89.3,105.3,86.9,105.3"/>
<rect x="93.8" y="92.9" class="st0" width="2.1" height="12.2"/>
<polygon class="st0" points="106.8,94.7 103.7,94.7 103.7,105.1 101.5,105.1 101.5,94.7 98.3,94.7 98.3,92.9 106.9,92.9 "/>
<path class="st0" d="M114.3,99.9v5.2h-2.1v-5.2l-3.9-7h2.4l1.6,3.5c0,0,0.2,0.4,0.9,1.8h0.1c0.6-1.4,0.8-1.8,0.8-1.8l1.7-3.5h2.3
	L114.3,99.9z"/>
<path class="st0" d="M130.7,94.5c-2.1,0-3.1,1.8-3.1,4.5c0,2.7,1,4.5,3.1,4.5c2.1,0,3.1-1.9,3.1-4.5
	C133.8,96.4,132.8,94.5,130.7,94.5 M130.7,105.3c-3.7,0-5.3-2.8-5.3-6.3c0-3.7,1.6-6.3,5.3-6.3c3.7,0,5.3,2.6,5.3,6.3
	C136,102.5,134.4,105.3,130.7,105.3"/>
<polygon class="st0" points="140.8,94.7 140.8,98.1 145.3,98.1 145.3,99.9 140.8,99.9 140.8,105.1 138.7,105.1 138.7,92.9 
	145.8,92.9 145.8,94.7 "/>
<path class="st0" d="M159.2,105.3c-3.8,0-5.4-2.5-5.4-6.3c0-3.7,1.8-6.3,5.5-6.3c1.5,0,2.8,0.5,4.1,1.6l-1.1,1.4
	c-0.9-0.8-1.8-1.2-3-1.2c-2.2,0-3.3,1.6-3.3,4.5c0,2.9,1.1,4.5,3.3,4.5c1.1,0,2.2-0.5,3.2-1.4l1.1,1.4
	C162.4,104.6,160.9,105.3,159.2,105.3"/>
<path class="st0" d="M171.2,98c0,0-0.1-0.4-1-2.9h0c-0.8,2.5-1,2.9-1,2.9l-0.9,2.7h3.9L171.2,98z M173.7,105.1l-1-2.9h-4.9l-1,2.9
	h-2l4.3-12l2.5-0.2l4.3,12.2H173.7z"/>
<polygon class="st0" points="184.8,105.1 177.6,105.1 177.6,92.9 179.7,92.9 179.7,103.3 184.9,103.3 "/>
<rect x="187" y="92.9" class="st0" width="2.1" height="12.2"/>
<polygon class="st0" points="194,94.7 194,98.1 198.5,98.1 198.5,99.9 194,99.9 194,105.1 191.9,105.1 191.9,92.9 199,92.9 
	199,94.7 "/>
<path class="st0" d="M205.7,94.5c-2.1,0-3.1,1.8-3.1,4.5c0,2.7,1,4.5,3.1,4.5c2.1,0,3.1-1.9,3.1-4.5
	C208.8,96.4,207.8,94.5,205.7,94.5 M205.7,105.3c-3.7,0-5.3-2.8-5.3-6.3c0-3.7,1.6-6.3,5.3-6.3c3.7,0,5.3,2.6,5.3,6.3
	C211,102.5,209.4,105.3,205.7,105.3"/>
<path class="st0" d="M216.7,94.7H215v3.7h1.8c1.3,0,1.9-0.7,1.9-1.9C218.6,95.4,218.2,94.7,216.7,94.7 M219.3,105.1l-1.7-3.4
	c-0.4-0.7-0.8-1.4-1.6-1.4h-1v4.9h-2.1V92.9h3.9c2.7,0,4,1.5,4,3.6c0,1.5-0.7,2.7-2.3,3.3v0c0.4,0.2,0.6,0.6,0.7,0.8l2.3,4.4H219.3z
	"/>
<polygon class="st0" points="230.6,105.1 225.4,96.9 225.4,96.9 225.4,105.1 223.2,105.1 223.2,93.1 225.3,92.9 230.3,100.9 
	230.3,100.9 230.3,92.9 232.4,92.9 232.4,105.1 "/>
<rect x="235.1" y="92.9" class="st0" width="2.1" height="12.2"/>
<path class="st0" d="M245.4,98c0,0-0.1-0.4-1-2.9h0c-0.8,2.5-1,2.9-1,2.9l-0.9,2.7h3.9L245.4,98z M247.9,105.1l-1-2.9H242l-1,2.9h-2
	l4.3-12l2.5-0.2l4.3,12.2H247.9z"/>
</svg>
